<?xml version="1.0" encoding="UTF-8" standalone="no"?>
<!-- Created with Inkscape (http://www.inkscape.org/) -->

<svg
   xmlns:dc="http://purl.org/dc/elements/1.1/"
   xmlns:cc="http://creativecommons.org/ns#"
   xmlns:rdf="http://www.w3.org/1999/02/22-rdf-syntax-ns#"
   xmlns:svg="http://www.w3.org/2000/svg"
   xmlns="http://www.w3.org/2000/svg"
   xmlns:sodipodi="http://sodipodi.sourceforge.net/DTD/sodipodi-0.dtd"
   xmlns:inkscape="http://www.inkscape.org/namespaces/inkscape"
   width="64"
   height="64"
   id="svg3364"
   sodipodi:version="0.32"
   inkscape:version="0.92.3 (2405546, 2018-03-11)"
   sodipodi:docname="constructionSew.svg"
   inkscape:output_extension="org.inkscape.output.svg.inkscape"
   version="1.1"
   inkscape:export-filename="/home/tanderson/temp/testExport.png"
   inkscape:export-xdpi="97.741203"
   inkscape:export-ydpi="97.741203">
  <defs
     id="defs3366" />
  <sodipodi:namedview
     id="base"
     pagecolor="#ffffff"
     bordercolor="#666666"
     borderopacity="1.0"
     inkscape:pageopacity="0.0"
     inkscape:pageshadow="2"
     inkscape:zoom="4.3586504"
     inkscape:cx="35.159207"
     inkscape:cy="36.536713"
     inkscape:current-layer="layer1"
     showgrid="true"
     inkscape:document-units="px"
     inkscape:grid-bbox="true"
     inkscape:window-width="1360"
     inkscape:window-height="681"
     inkscape:window-x="0"
     inkscape:window-y="0"
     inkscape:window-maximized="1"
     inkscape:showpageshadow="false"
     inkscape:pagecheckerboard="true" />
  <metadata
     id="metadata3369">
    <rdf:RDF>
      <cc:Work
         rdf:about="">
        <dc:format>image/svg+xml</dc:format>
        <dc:type
           rdf:resource="http://purl.org/dc/dcmitype/StillImage" />
        <dc:title></dc:title>
      </cc:Work>
    </rdf:RDF>
  </metadata>
  <g
     id="layer1"
     inkscape:label="Layer 1"
     inkscape:groupmode="layer"
     transform="translate(0,-4.2666702)">
    <path
       style="fill:#5c7ddb;fill-opacity:1;stroke:#0f118e;stroke-width:3.00737071;stroke-linecap:butt;stroke-linejoin:round;stroke-miterlimit:4;stroke-dasharray:none;stroke-opacity:1"
       d="M 4.692975,13.40289 4.951137,33.754464 C 20.566324,11.380763 45.917125,52.56831 60.61444,30.626174 L 60.370381,8.763424 C 45.397576,27.846158 15.742059,-6.6908196 4.692975,13.40289 Z"
       id="path3820-1"
       inkscape:connector-curvature="0"
       sodipodi:nodetypes="ccccc" />
    <ellipse
       style="fill:#0f118e;fill-opacity:1;stroke:none;stroke-width:1.3409903"
       id="path3810"
       cx="54.296719"
       cy="26.083672"
       rx="3.678566"
       ry="1.8550853" />
    <path
       sodipodi:nodetypes="cccczc"
       inkscape:connector-curvature="0"
       id="path3018"
       d="M 4.692975,42.676153 4.951137,65.731824 C 20.566324,43.35813 45.917125,75.661665 60.61444,53.719516 L 60.370381,31.85678 C 52.883978,41.398141 41.77646,36.360562 36.264414,34.610537 30.75238,32.860514 10.217519,32.629297 4.692975,42.676153 Z"
       style="fill:#5c7ddb;fill-opacity:1;stroke:#0f118e;stroke-width:3.00737071;stroke-linecap:butt;stroke-linejoin:round;stroke-miterlimit:4;stroke-dasharray:none;stroke-opacity:1" />
    <ellipse
       id="path3823"
       style="fill:#0f118e;fill-opacity:1;stroke:none;stroke-width:1.3409903"
       cx="54.871674"
       cy="45.173035"
       rx="3.678566"
       ry="1.8550853" />
    <path
       style="fill:none;stroke:#ff0900;stroke-width:3.00737071;stroke-linecap:butt;stroke-linejoin:miter;stroke-miterlimit:4;stroke-dasharray:none;stroke-opacity:1"
       d="m 54.297188,27.158438 c 0.813147,11.546667 0.698151,16.951493 0.698151,16.951493"
       id="path3020"
       inkscape:connector-curvature="0"
       sodipodi:nodetypes="cc" />
    <ellipse
       id="path3815"
       style="fill:#0f118e;fill-opacity:1;stroke:none;stroke-width:1.3409903"
       cx="46.361954"
       cy="26.083672"
       rx="3.678566"
       ry="1.8550853" />
    <ellipse
       style="fill:#0f118e;fill-opacity:1;stroke:none;stroke-width:1.3409903"
       id="path3821"
       cx="47.166943"
       cy="45.173035"
       rx="3.678566"
       ry="1.8550853" />
    <path
       sodipodi:nodetypes="cc"
       inkscape:connector-curvature="0"
       id="path3811"
       d="m 46.362445,27.27343 c 0.813145,11.546677 0.698151,16.836501 0.698151,16.836501"
       style="fill:none;stroke:#ff0900;stroke-width:3.00737071;stroke-linecap:butt;stroke-linejoin:miter;stroke-miterlimit:4;stroke-dasharray:none;stroke-opacity:1" />
    <ellipse
       style="fill:#0f118e;fill-opacity:1;stroke:none;stroke-width:1.3409903"
       id="path3817"
       cx="38.542229"
       cy="26.083672"
       rx="3.678566"
       ry="1.8550853" />
    <ellipse
       id="path3819"
       style="fill:#0f118e;fill-opacity:1;stroke:none;stroke-width:1.3409903"
       cx="39.117199"
       cy="45.173035"
       rx="3.678566"
       ry="1.8550853" />
    <path
       style="fill:none;stroke:#ff0900;stroke-width:3.00737071;stroke-linecap:butt;stroke-linejoin:miter;stroke-miterlimit:4;stroke-dasharray:none;stroke-opacity:1"
       d="m 38.542705,27.27343 c 0.813141,11.546677 0.698149,16.836501 0.698149,16.836501"
       id="path3813"
       inkscape:connector-curvature="0"
       sodipodi:nodetypes="cc" />
    <ellipse
       id="path3825"
       style="fill:#0f118e;fill-opacity:1;stroke:none;stroke-width:1.3409903"
       cx="30.722479"
       cy="26.083672"
       rx="3.678566"
       ry="1.8550853" />
    <path
       style="fill:none;stroke:#ff0900;stroke-width:3.00737071;stroke-linecap:butt;stroke-linejoin:miter;stroke-miterlimit:4;stroke-dasharray:none;stroke-opacity:1"
       d="m 30.722477,25.738676 c 0,0 3.07779,-10.771095 -0.11498,-14.949509 C 27.414713,6.6107521 19.622674,6.0743207 15.436165,8.8250657 11.249659,11.575814 10.078976,18.452645 10.078976,18.452645"
       id="path3827"
       inkscape:connector-curvature="0"
       sodipodi:nodetypes="czzc" />
    <path
       style="fill:#c1c2e4;fill-opacity:1;stroke:#000000;stroke-width:3.00737071;stroke-linecap:butt;stroke-linejoin:miter;stroke-miterlimit:5;stroke-dasharray:none;stroke-opacity:1"
       d="m 26.352623,39.633491 c 2.594465,1.96771 4.601542,3.471311 4.601542,3.471311 0,0 -0.694149,-1.838888 -2.402668,-5.214286 C 26.842987,34.515105 17.383565,23.211508 13.841352,19.001737 10.299133,14.791969 7.4666852,12.017178 5.883294,13.549076 4.2998949,15.080974 6.2433501,17.633882 9.7166391,22.204092 13.18992,26.774296 23.758153,37.66578 26.352623,39.633491 Z"
       id="path3829"
       inkscape:connector-curvature="0"
       sodipodi:nodetypes="zczzzzz" />
    <path
       sodipodi:nodetypes="czzsc"
       inkscape:connector-curvature="0"
       id="path3831"
       d="m 8.2756745,53.193711 c 0,0 8.9792575,-5.490021 8.7975085,-11.864918 C 16.891429,34.953889 9.5115125,32.82189 8.5244089,28.987703 7.5373071,25.15352 7.6249047,22.836185 8.4356254,20.748083 9.6336387,17.662461 10.172679,17.294748 10.172679,17.294748"
       style="fill:none;stroke:#ff0900;stroke-width:3.00737071;stroke-linecap:butt;stroke-linejoin:miter;stroke-miterlimit:4;stroke-dasharray:none;stroke-opacity:1" />
  </g>
</svg>
