<?xml version="1.0" encoding="UTF-8" standalone="no"?>
<!-- Created with Inkscape (http://www.inkscape.org/) -->

<svg
   xmlns:dc="http://purl.org/dc/elements/1.1/"
   xmlns:cc="http://creativecommons.org/ns#"
   xmlns:rdf="http://www.w3.org/1999/02/22-rdf-syntax-ns#"
   xmlns:svg="http://www.w3.org/2000/svg"
   xmlns="http://www.w3.org/2000/svg"
   xmlns:xlink="http://www.w3.org/1999/xlink"
   xmlns:sodipodi="http://sodipodi.sourceforge.net/DTD/sodipodi-0.dtd"
   xmlns:inkscape="http://www.inkscape.org/namespaces/inkscape"
   width="64"
   height="64"
   id="svg3364"
   sodipodi:version="0.32"
   inkscape:version="0.92.3 (2405546, 2018-03-11)"
   sodipodi:docname="constructionTrim.svg"
   inkscape:output_extension="org.inkscape.output.svg.inkscape"
   version="1.1"
   inkscape:export-filename="/home/user/Downloads/cad/mystuff/icons/surface_tools/more_stuff/Surface_Tools_Fill_From_Edges_1_32px.png"
   inkscape:export-xdpi="45"
   inkscape:export-ydpi="45">
  <defs
     id="defs3366">
    <linearGradient
       inkscape:collect="always"
       id="linearGradient3880">
      <stop
         style="stop-color:#928c83;stop-opacity:1"
         offset="0"
         id="stop3882" />
      <stop
         style="stop-color:#e5e0d9;stop-opacity:1"
         offset="1"
         id="stop3884" />
    </linearGradient>
    <linearGradient
       inkscape:collect="always"
       id="linearGradient3870">
      <stop
         style="stop-color:#d99201;stop-opacity:1"
         offset="0"
         id="stop3872" />
      <stop
         style="stop-color:#e9ba73;stop-opacity:1"
         offset="1"
         id="stop3874" />
    </linearGradient>
    <linearGradient
       inkscape:collect="always"
       xlink:href="#linearGradient3870"
       id="linearGradient3910"
       gradientUnits="userSpaceOnUse"
       x1="35.256268"
       y1="38.517853"
       x2="50.874161"
       y2="61.149033"
       gradientTransform="matrix(-0.98554191,0,0,0.98554191,61.442864,4.6374431)" />
    <linearGradient
       inkscape:collect="always"
       xlink:href="#linearGradient3880"
       id="linearGradient3912"
       gradientUnits="userSpaceOnUse"
       x1="10.635336"
       y1="1.1233834"
       x2="38.614426"
       y2="43.338287"
       gradientTransform="matrix(-0.98554191,0,0,0.98554191,61.442864,4.6374431)" />
    <linearGradient
       inkscape:collect="always"
       xlink:href="#linearGradient3870"
       id="linearGradient3915"
       gradientUnits="userSpaceOnUse"
       x1="35.256268"
       y1="38.517853"
       x2="50.874161"
       y2="61.149033"
       gradientTransform="matrix(0.98554191,0,0,0.98554191,2.644306,4.6374431)" />
    <linearGradient
       inkscape:collect="always"
       xlink:href="#linearGradient3880"
       id="linearGradient3917"
       gradientUnits="userSpaceOnUse"
       x1="10.635336"
       y1="1.1233834"
       x2="38.614426"
       y2="43.338287"
       gradientTransform="matrix(0.98554191,0,0,0.98554191,2.644306,4.6374431)" />
  </defs>
  <sodipodi:namedview
     id="base"
     pagecolor="#ffffff"
     bordercolor="#666666"
     borderopacity="1.0"
     inkscape:pageopacity="0.0"
     inkscape:pageshadow="2"
     inkscape:zoom="4.5160921"
     inkscape:cx="-14.99958"
     inkscape:cy="39.223429"
     inkscape:current-layer="layer1"
     showgrid="true"
     inkscape:document-units="px"
     inkscape:grid-bbox="true"
     inkscape:window-width="1360"
     inkscape:window-height="681"
     inkscape:window-x="0"
     inkscape:window-y="0"
     inkscape:window-maximized="1"
     inkscape:pagecheckerboard="true"
     inkscape:showpageshadow="false" />
  <metadata
     id="metadata3369">
    <rdf:RDF>
      <cc:Work
         rdf:about="">
        <dc:format>image/svg+xml</dc:format>
        <dc:type
           rdf:resource="http://purl.org/dc/dcmitype/StillImage" />
        <dc:title />
      </cc:Work>
    </rdf:RDF>
  </metadata>
  <g
     id="layer1"
     inkscape:label="Layer 1"
     inkscape:groupmode="layer"
     transform="translate(0,-4.2666702)">
    <path
       style="fill:#e89217;fill-opacity:0;stroke:#000000;stroke-width:1.971084;stroke-linecap:butt;stroke-linejoin:round;stroke-miterlimit:4;stroke-dasharray:none;stroke-opacity:1"
       d="m 40.687268,43.032478 3.547946,4.356502 c 1.053455,1.293532 8.332981,0.593092 10.173078,6.479366 1.840099,5.88627 -1.466247,10.393502 -5.466853,11.589315 -4.000612,1.195815 -9.902747,-0.960502 -11.193622,-5.691301 -1.29088,-4.7308 1.529636,-7.766244 0.752597,-9.252275 l -2.420718,-4.629443 z"
       id="path3805"
       inkscape:connector-curvature="0"
       sodipodi:nodetypes="cszzzscc" />
    <path
       style="fill:#e89217;fill-opacity:0;stroke:#000000;stroke-width:1.971084;stroke-linecap:butt;stroke-linejoin:round;stroke-miterlimit:4;stroke-dasharray:none;stroke-opacity:1"
       d="m 44.132762,51.827776 c -2.545685,1.031616 -3.69753,4.524025 -2.769867,6.783352 0.965113,2.35054 4.364995,4.177725 7.009464,2.995983 2.585461,-1.155379 3.547818,-4.620532 2.487227,-6.83988 -1.097774,-2.297161 -4.45896,-3.858489 -6.726824,-2.939455 z"
       id="path3811"
       inkscape:connector-curvature="0"
       sodipodi:nodetypes="sasss" />
    <path
       style="fill:none;stroke:#000000;stroke-width:1.971084;stroke-linecap:butt;stroke-linejoin:round;stroke-miterlimit:4;stroke-dasharray:none;stroke-opacity:1"
       d="M 35.974102,45.624735 40.50847,42.863984 13.904834,6.7327925 c 0,0 8.124819,15.9378095 12.590384,23.6834215 2.983576,5.175079 9.478884,15.208521 9.478884,15.208521 z"
       id="path3854"
       inkscape:connector-curvature="0"
       sodipodi:nodetypes="cccac" />
    <path
       style="fill:url(#linearGradient3915);fill-opacity:1;stroke:none;stroke-width:0.985542;stroke-linejoin:round"
       d="m 45.648301,65.203146 c -1.987868,-0.209548 -3.990695,-1.084466 -5.33473,-2.330431 -1.360256,-1.260995 -2.045856,-2.601348 -2.303725,-4.5038 -0.205733,-1.517749 -0.05726,-2.667684 0.649295,-5.029336 0.515037,-1.721467 0.591481,-2.287885 0.385487,-2.856309 -0.03381,-0.09327 -0.556435,-1.119218 -1.16141,-2.279878 -0.604975,-1.160661 -1.07787,-2.13065 -1.050883,-2.155526 0.03606,-0.03326 3.182811,-1.98573 3.67558,-2.280618 0.04068,-0.02435 0.706149,0.747432 1.768806,2.051449 1.26384,1.550895 1.766523,2.127388 1.947486,2.233437 0.371077,0.217467 0.94718,0.396589 2.464802,0.766345 2.052492,0.500078 3.093209,0.864268 4.098273,1.434171 1.401147,0.794487 2.368412,1.862087 2.907998,3.209636 0.225818,0.56396 0.481944,1.531643 0.595479,2.249817 0.108814,0.688303 0.122635,2.025375 0.02749,2.658218 -0.415866,2.765977 -2.069436,5.022732 -4.534468,6.18855 -1.23456,0.583881 -2.636491,0.802293 -4.135482,0.644275 z m 2.301088,-2.902819 c 1.802196,-0.525786 3.128935,-1.979821 3.664592,-4.016204 0.116192,-0.441772 0.133861,-0.638987 0.134056,-1.497986 2.79e-4,-1.152291 -0.06582,-1.483938 -0.456177,-2.289384 -1.21844,-2.514108 -4.691381,-4.058984 -7.189634,-3.198183 -2.659954,0.91652 -4.286073,4.581833 -3.272078,7.375352 0.616825,1.699342 2.52578,3.256703 4.502191,3.672971 0.643155,0.135462 0.711584,0.141117 1.441464,0.119057 0.51573,-0.01561 0.79753,-0.05532 1.175586,-0.1656 z"
       id="path3868"
       inkscape:connector-curvature="0" />
    <path
       style="fill:url(#linearGradient3917);fill-opacity:1;stroke:none;stroke-width:0.985542;stroke-linejoin:round"
       d="M 34.472908,42.271782 C 28.18198,32.431307 26.36573,29.320681 21.090556,19.352256 18.11952,13.737941 17.729987,12.989201 17.762987,12.956205 c 0.02773,-0.02773 21.898375,29.635891 21.91992,29.730464 0.0046,0.02497 -0.788228,0.529985 -1.764241,1.122294 l -1.77458,1.076922 z"
       id="path3878"
       inkscape:connector-curvature="0" />
    <path
       sodipodi:nodetypes="cszzzscc"
       inkscape:connector-curvature="0"
       id="path3900"
       d="m 23.399902,43.032478 -3.547945,4.356502 c -1.053456,1.293532 -8.332982,0.593092 -10.1730775,6.479366 -1.8401013,5.88627 1.4662465,10.393502 5.4668525,11.589315 4.000611,1.195815 9.902747,-0.960502 11.193622,-5.691301 1.29088,-4.7308 -1.529636,-7.766244 -0.752597,-9.252275 l 2.420718,-4.629443 z"
       style="fill:#e89217;fill-opacity:0;stroke:#000000;stroke-width:1.971084;stroke-linecap:butt;stroke-linejoin:round;stroke-miterlimit:4;stroke-dasharray:none;stroke-opacity:1" />
    <path
       sodipodi:nodetypes="sasss"
       inkscape:connector-curvature="0"
       id="path3902"
       d="m 19.954407,51.827776 c 2.545686,1.031616 3.69753,4.524025 2.769867,6.783352 -0.965112,2.35054 -4.364994,4.177725 -7.009463,2.995983 -2.58546,-1.155379 -3.547817,-4.620532 -2.487226,-6.83988 1.097774,-2.297161 4.458958,-3.858489 6.726822,-2.939455 z"
       style="fill:#e89217;fill-opacity:0;stroke:#000000;stroke-width:1.971084;stroke-linecap:butt;stroke-linejoin:round;stroke-miterlimit:4;stroke-dasharray:none;stroke-opacity:1" />
    <path
       sodipodi:nodetypes="cccac"
       inkscape:connector-curvature="0"
       id="path3904"
       d="M 28.113068,45.624735 23.5787,42.863984 50.182337,6.7327925 c 0,0 -8.124819,15.9378095 -12.590384,23.6834215 -2.983578,5.175079 -9.478885,15.208521 -9.478885,15.208521 z"
       style="fill:none;stroke:#000000;stroke-width:1.97083747;stroke-linecap:butt;stroke-linejoin:round;stroke-miterlimit:4;stroke-dasharray:none;stroke-opacity:1" />
    <path
       inkscape:connector-curvature="0"
       id="path3906"
       d="m 18.438869,65.203146 c 1.987869,-0.209548 3.990695,-1.084466 5.33473,-2.330431 1.360256,-1.260995 2.045856,-2.601348 2.303725,-4.5038 0.205733,-1.517749 0.05727,-2.667684 -0.649294,-5.029336 -0.515038,-1.721467 -0.591482,-2.287885 -0.385488,-2.856309 0.03381,-0.09327 0.556434,-1.119218 1.16141,-2.279878 0.604975,-1.160661 1.077871,-2.13065 1.050883,-2.155526 -0.03606,-0.03326 -3.182811,-1.98573 -3.67558,-2.280618 -0.04069,-0.02435 -0.706149,0.747432 -1.768806,2.051449 -1.26384,1.550895 -1.766523,2.127388 -1.947485,2.233437 -0.371078,0.217467 -0.947181,0.396589 -2.464803,0.766345 -2.052491,0.500078 -3.093209,0.864268 -4.098273,1.434171 -1.401147,0.794487 -2.368411,1.862087 -2.907998,3.209636 -0.225818,0.56396 -0.4819441,1.531643 -0.5954801,2.249817 -0.1088231,0.688303 -0.1226223,2.025375 -0.027484,2.658218 0.4158681,2.765977 2.0694361,5.022732 4.5344681,6.18855 1.23456,0.583881 2.636491,0.802293 4.135481,0.644275 z m -2.301088,-2.902819 c -1.802195,-0.525786 -3.128935,-1.979821 -3.664592,-4.016204 -0.116192,-0.441772 -0.133861,-0.638987 -0.134056,-1.497986 -2.79e-4,-1.152291 0.06583,-1.483938 0.456177,-2.289384 1.21844,-2.514108 4.691379,-4.058984 7.189634,-3.198183 2.659953,0.91652 4.286073,4.581833 3.272079,7.375352 -0.616826,1.699342 -2.525781,3.256703 -4.502192,3.672971 -0.643154,0.135462 -0.711584,0.141117 -1.441464,0.119057 -0.51573,-0.01561 -0.797529,-0.05532 -1.175586,-0.1656 z"
       style="fill:url(#linearGradient3910);fill-opacity:1;stroke:none;stroke-width:0.985542;stroke-linejoin:round" />
    <path
       inkscape:connector-curvature="0"
       id="path3908"
       d="m 29.614261,42.271782 c 6.290928,-9.840475 8.10718,-12.951101 13.382354,-22.919526 2.971034,-5.614315 3.360569,-6.363055 3.327568,-6.396051 -0.02773,-0.02773 -21.898375,29.635891 -21.919921,29.730464 -0.0046,0.02497 0.788229,0.529985 1.764242,1.122294 l 1.77458,1.076922 z"
       style="fill:url(#linearGradient3912);fill-opacity:1;stroke:none;stroke-width:0.985542;stroke-linejoin:round" />
    <circle
       style="fill:#080000;fill-opacity:1;fill-rule:evenodd;stroke:none;stroke-width:0.985542;stroke-linejoin:round"
       id="path3919"
       cx="32.020454"
       cy="35.235466"
       r="1.5189086" />
  </g>
</svg>
