<?xml version="1.0" encoding="UTF-8" standalone="no"?>
<!-- Created with Inkscape (http://www.inkscape.org/) -->

<svg
   xmlns:dc="http://purl.org/dc/elements/1.1/"
   xmlns:cc="http://creativecommons.org/ns#"
   xmlns:rdf="http://www.w3.org/1999/02/22-rdf-syntax-ns#"
   xmlns:svg="http://www.w3.org/2000/svg"
   xmlns="http://www.w3.org/2000/svg"
   xmlns:xlink="http://www.w3.org/1999/xlink"
   xmlns:sodipodi="http://sodipodi.sourceforge.net/DTD/sodipodi-0.dtd"
   xmlns:inkscape="http://www.inkscape.org/namespaces/inkscape"
   width="64"
   height="64"
   id="svg5181"
   version="1.1"
   inkscape:version="0.92.3 (2405546, 2018-03-11)"
   sodipodi:docname="constructionUnion.svg">
  <defs
     id="defs5183">
    <linearGradient
       id="linearGradient3796">
      <stop
         style="stop-color:#e3c7cd;stop-opacity:1;"
         offset="0"
         id="stop3798" />
      <stop
         style="stop-color:#a50029;stop-opacity:1;"
         offset="1"
         id="stop3800" />
    </linearGradient>
    <linearGradient
       inkscape:collect="always"
       xlink:href="#linearGradient3796"
       id="linearGradient874"
       gradientUnits="userSpaceOnUse"
       gradientTransform="matrix(1.282432,0,0,1.282432,-174.60201,-29.025815)"
       x1="97.728348"
       y1="6.6754622"
       x2="122.93019"
       y2="31.532604" />
    <linearGradient
       inkscape:collect="always"
       xlink:href="#linearGradient3796"
       id="linearGradient884"
       x1="10.767841"
       y1="-16.807978"
       x2="88.711754"
       y2="29.739853"
       gradientUnits="userSpaceOnUse"
       gradientTransform="translate(-0.21549921,-0.43099842)" />
    <linearGradient
       inkscape:collect="always"
       xlink:href="#linearGradient3796"
       id="linearGradient892"
       x1="43.266808"
       y1="-14.655835"
       x2="54.063774"
       y2="30.167999"
       gradientUnits="userSpaceOnUse"
       gradientTransform="translate(-0.21549921,-0.43099842)" />
    <linearGradient
       inkscape:collect="always"
       xlink:href="#linearGradient3796"
       id="linearGradient900"
       x1="0.42380917"
       y1="-3.649617"
       x2="21.460869"
       y2="40.958721"
       gradientUnits="userSpaceOnUse"
       gradientTransform="translate(-0.21549921,-0.43099842)" />
    <radialGradient
       inkscape:collect="always"
       xlink:href="#linearGradient3796"
       id="radialGradient908"
       cx="3.0545652"
       cy="22.852016"
       fx="3.0545652"
       fy="22.852016"
       r="14.721322"
       gradientTransform="matrix(2.9321351,0.04085561,-0.03457051,2.4810578,-9.1737453,-36.878958)"
       gradientUnits="userSpaceOnUse" />
  </defs>
  <sodipodi:namedview
     id="base"
     pagecolor="#ffffff"
     bordercolor="#666666"
     borderopacity="1.0"
     inkscape:pageopacity="0.0"
     inkscape:pageshadow="2"
     inkscape:zoom="3.28125"
     inkscape:cx="-0.541446"
     inkscape:cy="44.929557"
     inkscape:current-layer="layer1"
     showgrid="true"
     inkscape:grid-bbox="true"
     inkscape:document-units="px"
     inkscape:window-width="1360"
     inkscape:window-height="681"
     inkscape:window-x="0"
     inkscape:window-y="0"
     inkscape:window-maximized="1"
     inkscape:showpageshadow="false"
     inkscape:pagecheckerboard="true" />
  <metadata
     id="metadata5186">
    <rdf:RDF>
      <cc:Work
         rdf:about="">
        <dc:format>image/svg+xml</dc:format>
        <dc:type
           rdf:resource="http://purl.org/dc/dcmitype/StillImage" />
        <dc:title></dc:title>
      </cc:Work>
    </rdf:RDF>
  </metadata>
  <g
     id="layer1"
     inkscape:label="Layer 1"
     inkscape:groupmode="layer"
     transform="translate(0,16)">
    <path
       style="opacity:0.61306529;fill:none;stroke:none;stroke-width:1.28243196;stroke-linejoin:round"
       d="M 26.698487,13.516942 C 23.72649,13.188497 21.946975,12.693921 19.737832,11.582374 17.085493,10.247846 15.826166,8.7681184 16.032638,7.2287456 16.19903,5.9881958 17.224211,4.6205027 18.557061,3.8609271 19.170214,3.5114917 19.5285,3.1393963 19.450883,2.9326581 19.379593,2.7428777 19.321338,2.4293832 19.321338,2.2360011 c 0,-0.1933816 -2.867103,-2.30511885 -6.371345,-4.6927493 -4.86012,-3.3114651 -6.2581993,-4.381321 -5.8943105,-4.510526 0.2623726,-0.093155 6.7858835,-1.7220015 14.4966855,-3.6196478 l 14.019663,-3.450266 10.795799,7.9805917 c 5.937684,4.3893248 10.763242,8.0088953 10.723474,8.0434889 -0.03975,0.034599 -3.278563,0.7362712 -7.197303,1.5592848 -3.91874,0.8230121 -7.183284,1.5462975 -7.254524,1.6072989 -0.0713,0.061003 -0.101428,0.7502268 -0.06721,1.5316088 0.0763,1.7380061 -0.332778,2.5981399 -1.807241,3.7995559 -2.805921,2.286305 -8.910065,3.602163 -14.066599,3.032301 v 0 z"
       id="path3042"
       inkscape:connector-curvature="0" />
    <path
       style="fill:url(#linearGradient892);fill-opacity:1;stroke:#000000;stroke-width:1px;stroke-linecap:butt;stroke-linejoin:round;stroke-opacity:1"
       d="M 43.47025,38.996411 59.382254,35.613174 59.119431,2.3756596 43.33581,5.7209306 Z"
       id="path834"
       inkscape:connector-curvature="0"
       sodipodi:nodetypes="ccccc" />
    <path
       style="fill:url(#linearGradient900);fill-opacity:1;stroke:#000000;stroke-width:1px;stroke-linecap:butt;stroke-linejoin:round;stroke-opacity:1"
       d="m 4.5872958,-7.1968247 0.00833,32.0963187 14.2102502,9.908969 V 2.5025666 Z"
       id="path838"
       inkscape:connector-curvature="0"
       sodipodi:nodetypes="ccccc" />
    <path
       style="fill:url(#radialGradient908);fill-opacity:1;stroke:#000000;stroke-width:1px;stroke-linecap:butt;stroke-linejoin:round;stroke-opacity:1"
       d="M 15.346501,39.215452 C 14.953947,47.268025 39.739994,51.12308 43.658812,38.996411 L 43.524372,5.7209306 C 46.870941,17.194314 17.160561,15.368372 15.343329,7.5113056 Z"
       id="path836"
       inkscape:connector-curvature="0"
       sodipodi:nodetypes="ccccc" />
    <path
       style="fill:url(#linearGradient884);fill-opacity:1;stroke:#000000;stroke-width:1px;stroke-linecap:butt;stroke-linejoin:round;stroke-opacity:1"
       d="m 35.768218,-14.891524 v 0 L 59.119431,2.3756596 43.33581,5.7209306 C 46.803144,20.013635 3.1696508,13.819598 18.805876,2.5025666 L 4.5872958,-7.1968247 Z"
       id="path832"
       inkscape:connector-curvature="0"
       sodipodi:nodetypes="ccccccc" />
  </g>
</svg>
