<?xml version="1.0" encoding="UTF-8" standalone="no"?>
<!-- Created with Inkscape (http://www.inkscape.org/) -->

<svg
   xmlns:dc="http://purl.org/dc/elements/1.1/"
   xmlns:cc="http://creativecommons.org/ns#"
   xmlns:rdf="http://www.w3.org/1999/02/22-rdf-syntax-ns#"
   xmlns:svg="http://www.w3.org/2000/svg"
   xmlns="http://www.w3.org/2000/svg"
   xmlns:sodipodi="http://sodipodi.sourceforge.net/DTD/sodipodi-0.dtd"
   xmlns:inkscape="http://www.inkscape.org/namespaces/inkscape"
   width="68.26667"
   height="68.26667"
   id="svg5181"
   version="1.1"
   inkscape:version="0.92.3 (2405546, 2018-03-11)"
   sodipodi:docname="constructionNest.svg">
  <defs
     id="defs5183" />
  <sodipodi:namedview
     id="base"
     pagecolor="#ffffff"
     bordercolor="#666666"
     borderopacity="1.0"
     inkscape:pageopacity="0.0"
     inkscape:pageshadow="2"
     inkscape:zoom="5.6568542"
     inkscape:cx="41.559899"
     inkscape:cy="34.359936"
     inkscape:current-layer="layer1"
     showgrid="false"
     inkscape:grid-bbox="true"
     inkscape:document-units="px"
     inkscape:window-width="1360"
     inkscape:window-height="681"
     inkscape:window-x="0"
     inkscape:window-y="0"
     inkscape:window-maximized="1"
     inkscape:showpageshadow="false"
     inkscape:pagecheckerboard="true">
    <inkscape:grid
       type="xygrid"
       id="grid898" />
  </sodipodi:namedview>
  <metadata
     id="metadata5186">
    <rdf:RDF>
      <cc:Work
         rdf:about="">
        <dc:format>image/svg+xml</dc:format>
        <dc:type
           rdf:resource="http://purl.org/dc/dcmitype/StillImage" />
        <dc:title></dc:title>
      </cc:Work>
    </rdf:RDF>
  </metadata>
  <g
     id="layer1"
     inkscape:label="Layer 1"
     inkscape:groupmode="layer"
     transform="translate(0,17.066667)">
    <path
       style="fill:#c8c8c8;fill-opacity:1;stroke:#000000;stroke-width:1;stroke-linecap:butt;stroke-linejoin:miter;stroke-opacity:1;stroke-miterlimit:4;stroke-dasharray:none"
       d="M 36.405884,36.098578 C 35.426477,43.360852 26.212986,35.194653 23.768137,36.202848 21.25822,37.237893 16.788448,44.439916 13.292628,40.706376 9.7968088,36.972854 16.441811,21.521561 14.536356,19.59247 12.630888,17.663372 5.9031724,21.846393 3.410803,19.390615 0.91843484,16.934841 0.51037804,12.070999 3.0859499,9.5295603 5.66152,6.9881218 12.477029,14.068475 15.678172,10.933733 18.879313,7.798994 9.1280811,4.091721 11.685449,-2.3229027 c 2.557367,-6.4146236 17.810433,-5.9544426 20.637346,-0.9304016 2.826912,5.0240419 -3.915167,10.0021614 -3.729184,17.4846683 0.185987,7.482507 8.791683,14.604937 7.812273,21.867207 z"
       id="path4504"
       inkscape:connector-curvature="0"
       sodipodi:nodetypes="zszzzzzzzzz" />
    <path
       sodipodi:nodetypes="zszzzzzzzzz"
       inkscape:connector-curvature="0"
       id="path4520"
       d="m 66.431265,36.098578 c -0.979412,7.262274 -10.192905,-0.903925 -12.637751,0.10427 -2.509915,1.035045 -6.979691,8.237068 -10.475508,4.503528 -3.49582,-3.733538 3.149183,-19.18483 1.243728,-21.113922 -1.90547,-1.929081 -8.633187,2.253941 -11.125555,-0.201836 -2.492369,-2.455774 -2.900426,-7.319616 -0.324853,-9.8610561 2.575571,-2.5414383 9.391081,4.5389141 12.592223,1.4041721 3.201144,-3.1347442 -6.55009,-6.8420172 -3.992722,-13.2566407 2.557364,-6.4146237 17.810431,-5.9544424 20.637344,-0.9304016 2.826911,5.0240421 -3.915169,10.0021615 -3.729182,17.4846683 0.185987,7.482507 8.791681,14.604937 7.812276,21.867207 z"
       style="fill:#c8c8c8;fill-opacity:1;stroke:#000000;stroke-width:1;stroke-linecap:butt;stroke-linejoin:miter;stroke-opacity:1;stroke-miterlimit:4;stroke-dasharray:none" />
  </g>
</svg>
