<?xml version="1.0" encoding="UTF-8" standalone="no"?>
<!-- Created with Inkscape (http://www.inkscape.org/) -->

<svg
   xmlns:dc="http://purl.org/dc/elements/1.1/"
   xmlns:cc="http://creativecommons.org/ns#"
   xmlns:rdf="http://www.w3.org/1999/02/22-rdf-syntax-ns#"
   xmlns:svg="http://www.w3.org/2000/svg"
   xmlns="http://www.w3.org/2000/svg"
   xmlns:xlink="http://www.w3.org/1999/xlink"
   xmlns:sodipodi="http://sodipodi.sourceforge.net/DTD/sodipodi-0.dtd"
   xmlns:inkscape="http://www.inkscape.org/namespaces/inkscape"
   width="64"
   height="64"
   id="svg5181"
   version="1.1"
   inkscape:version="0.92.3 (2405546, 2018-03-11)"
   sodipodi:docname="editFeatureDissolve.svg">
  <defs
     id="defs5183">
    <linearGradient
       id="linearGradient3796">
      <stop
         style="stop-color:#e3c7cd;stop-opacity:1;"
         offset="0"
         id="stop3798" />
      <stop
         style="stop-color:#a50029;stop-opacity:1;"
         offset="1"
         id="stop3800" />
    </linearGradient>
    <linearGradient
       inkscape:collect="always"
       xlink:href="#linearGradient3796"
       id="linearGradient3904"
       gradientUnits="userSpaceOnUse"
       gradientTransform="matrix(1.771561,0,0,1.771561,-25.665063,-12.373978)"
       x1="19.976871"
       y1="-2.5388687"
       x2="47.830227"
       y2="26.456205" />
    <linearGradient
       inkscape:collect="always"
       xlink:href="#linearGradient3796"
       id="linearGradient3907"
       gradientUnits="userSpaceOnUse"
       gradientTransform="matrix(1.771561,0,0,1.771561,-22.497836,-27.82658)"
       x1="21"
       y1="13.357141"
       x2="33.214287"
       y2="46.42857" />
    <linearGradient
       inkscape:collect="always"
       xlink:href="#linearGradient3796"
       id="linearGradient3910"
       gradientUnits="userSpaceOnUse"
       gradientTransform="matrix(1.771561,0,0,1.771561,-26.917747,-44.943731)"
       x1="31.785713"
       y1="16.857143"
       x2="43.142853"
       y2="46.285709" />
    <linearGradient
       inkscape:collect="always"
       xlink:href="#linearGradient3796"
       id="linearGradient4638"
       x1="150.09067"
       y1="35.017311"
       x2="153.61893"
       y2="35.017311"
       gradientUnits="userSpaceOnUse"
       gradientTransform="matrix(0.73421786,0,0,0.73421786,-96.681563,-8.1870042)" />
    <linearGradient
       inkscape:collect="always"
       xlink:href="#linearGradient3796"
       id="linearGradient4642"
       gradientUnits="userSpaceOnUse"
       gradientTransform="matrix(0.73421786,0,0,0.73421786,-90.945422,-13.460549)"
       x1="150.09067"
       y1="35.017311"
       x2="153.61893"
       y2="35.017311" />
    <linearGradient
       inkscape:collect="always"
       xlink:href="#linearGradient3796"
       id="linearGradient4646"
       gradientUnits="userSpaceOnUse"
       gradientTransform="matrix(0.73421786,0,0,0.73421786,-87.892323,-12.257812)"
       x1="150.09067"
       y1="35.017311"
       x2="153.61893"
       y2="35.017311" />
    <linearGradient
       inkscape:collect="always"
       xlink:href="#linearGradient3796"
       id="linearGradient4650"
       gradientUnits="userSpaceOnUse"
       gradientTransform="matrix(0.73421786,0,0,0.73421786,-93.906016,-10.777516)"
       x1="150.09067"
       y1="35.017311"
       x2="153.61893"
       y2="35.017311" />
    <linearGradient
       inkscape:collect="always"
       xlink:href="#linearGradient3796"
       id="linearGradient4654"
       gradientUnits="userSpaceOnUse"
       gradientTransform="matrix(0.73421786,0,0,0.73421786,-99.642152,-5.5964917)"
       x1="150.09067"
       y1="35.017311"
       x2="153.61893"
       y2="35.017311" />
    <linearGradient
       inkscape:collect="always"
       xlink:href="#linearGradient3796"
       id="linearGradient4658"
       gradientUnits="userSpaceOnUse"
       gradientTransform="matrix(0.73421786,0,0,0.73421786,-101.49252,-0.50798457)"
       x1="150.09067"
       y1="35.017311"
       x2="153.61893"
       y2="35.017311" />
    <linearGradient
       inkscape:collect="always"
       xlink:href="#linearGradient3796"
       id="linearGradient4662"
       gradientUnits="userSpaceOnUse"
       gradientTransform="matrix(0.73421786,0,0,0.73421786,-98.716961,-2.3583513)"
       x1="150.09067"
       y1="35.017311"
       x2="153.61893"
       y2="35.017311" />
    <linearGradient
       inkscape:collect="always"
       xlink:href="#linearGradient3796"
       id="linearGradient4666"
       gradientUnits="userSpaceOnUse"
       gradientTransform="matrix(0.73421786,0,0,0.73421786,-95.571342,-4.8563452)"
       x1="150.09067"
       y1="35.017311"
       x2="153.61893"
       y2="35.017311" />
    <linearGradient
       inkscape:collect="always"
       xlink:href="#linearGradient3796"
       id="linearGradient4670"
       gradientUnits="userSpaceOnUse"
       gradientTransform="matrix(0.73421786,0,0,0.73421786,-93.165864,-7.1693028)"
       x1="150.09067"
       y1="35.017311"
       x2="153.61893"
       y2="35.017311" />
    <linearGradient
       inkscape:collect="always"
       xlink:href="#linearGradient3796"
       id="linearGradient4674"
       gradientUnits="userSpaceOnUse"
       gradientTransform="matrix(0.73421786,0,0,0.73421786,-90.205279,-9.7598154)"
       x1="150.09067"
       y1="35.017311"
       x2="153.61893"
       y2="35.017311" />
    <linearGradient
       inkscape:collect="always"
       xlink:href="#linearGradient3796"
       id="linearGradient4678"
       gradientUnits="userSpaceOnUse"
       gradientTransform="matrix(0.73421786,0,0,0.73421786,-103.89799,1.2498634)"
       x1="150.09067"
       y1="35.017311"
       x2="153.61893"
       y2="35.017311" />
    <linearGradient
       inkscape:collect="always"
       xlink:href="#linearGradient3796"
       id="linearGradient4817"
       gradientUnits="userSpaceOnUse"
       gradientTransform="matrix(0.73421786,0,0,0.73421786,-103.34288,-3.4685709)"
       x1="150.09067"
       y1="35.017311"
       x2="153.61893"
       y2="35.017311" />
    <linearGradient
       inkscape:collect="always"
       xlink:href="#linearGradient3796"
       id="linearGradient4821"
       gradientUnits="userSpaceOnUse"
       gradientTransform="matrix(0.73421786,0,0,0.73421786,-106.67355,-1.8957594)"
       x1="150.09067"
       y1="35.017311"
       x2="153.61893"
       y2="35.017311" />
    <linearGradient
       inkscape:collect="always"
       xlink:href="#linearGradient3796"
       id="linearGradient4825"
       gradientUnits="userSpaceOnUse"
       gradientTransform="matrix(0.73421786,0,0,0.73421786,-106.58102,-6.5216748)"
       x1="150.09067"
       y1="35.017311"
       x2="153.61893"
       y2="35.017311" />
    <linearGradient
       inkscape:collect="always"
       xlink:href="#linearGradient3796"
       id="linearGradient4829"
       gradientUnits="userSpaceOnUse"
       gradientTransform="matrix(0.73421786,0,0,0.73421786,-103.15785,-8.2795225)"
       x1="150.09067"
       y1="35.017311"
       x2="153.61893"
       y2="35.017311" />
    <linearGradient
       inkscape:collect="always"
       xlink:href="#linearGradient3796"
       id="linearGradient4833"
       gradientUnits="userSpaceOnUse"
       gradientTransform="matrix(0.73421786,0,0,0.73421786,-99.734668,-10.499961)"
       x1="150.09067"
       y1="35.017311"
       x2="153.61893"
       y2="35.017311" />
    <linearGradient
       inkscape:collect="always"
       xlink:href="#linearGradient3796"
       id="linearGradient4837"
       gradientUnits="userSpaceOnUse"
       gradientTransform="matrix(0.73421786,0,0,0.73421786,-97.144153,-13.460549)"
       x1="150.09067"
       y1="35.017311"
       x2="153.61893"
       y2="35.017311" />
    <linearGradient
       inkscape:collect="always"
       xlink:href="#linearGradient3796"
       id="linearGradient4841"
       gradientUnits="userSpaceOnUse"
       gradientTransform="matrix(0.73421786,0,0,0.73421786,-86.412029,-15.310917)"
       x1="150.09067"
       y1="35.017311"
       x2="153.61893"
       y2="35.017311" />
    <linearGradient
       inkscape:collect="always"
       xlink:href="#linearGradient3796"
       id="linearGradient4845"
       gradientUnits="userSpaceOnUse"
       gradientTransform="matrix(0.73421786,0,0,0.73421786,-94.183567,-15.495948)"
       x1="150.09067"
       y1="35.017311"
       x2="153.61893"
       y2="35.017311" />
    <linearGradient
       inkscape:collect="always"
       xlink:href="#linearGradient3796"
       id="linearGradient4849"
       gradientUnits="userSpaceOnUse"
       gradientTransform="matrix(0.73421786,0,0,0.73421786,-90.575355,-17.993948)"
       x1="150.09067"
       y1="35.017311"
       x2="153.61893"
       y2="35.017311" />
    <linearGradient
       inkscape:collect="always"
       xlink:href="#linearGradient3796"
       id="linearGradient4853"
       gradientUnits="userSpaceOnUse"
       gradientTransform="matrix(0.73421786,0,0,0.73421786,-95.201269,-20.491939)"
       x1="150.09067"
       y1="35.017311"
       x2="153.61893"
       y2="35.017311" />
    <linearGradient
       inkscape:collect="always"
       xlink:href="#linearGradient3796"
       id="linearGradient4857"
       gradientUnits="userSpaceOnUse"
       gradientTransform="matrix(0.73421786,0,0,0.73421786,-99.364595,-17.901426)"
       x1="150.09067"
       y1="35.017311"
       x2="153.61893"
       y2="35.017311" />
    <linearGradient
       inkscape:collect="always"
       xlink:href="#linearGradient3796"
       id="linearGradient4861"
       gradientUnits="userSpaceOnUse"
       gradientTransform="matrix(0.73421786,0,0,0.73421786,-102.97281,-15.125878)"
       x1="150.09067"
       y1="35.017311"
       x2="153.61893"
       y2="35.017311" />
    <linearGradient
       inkscape:collect="always"
       xlink:href="#linearGradient3796"
       id="linearGradient4865"
       gradientUnits="userSpaceOnUse"
       gradientTransform="matrix(0.5668514,0,0,0.5668514,-74.479833,-6.4787268)"
       x1="150.09067"
       y1="35.017311"
       x2="153.61893"
       y2="35.017311" />
    <linearGradient
       inkscape:collect="always"
       xlink:href="#linearGradient3796"
       id="linearGradient4873"
       gradientUnits="userSpaceOnUse"
       gradientTransform="matrix(0.73421786,0,0,0.73421786,-107.87628,-18.73409)"
       x1="150.09067"
       y1="35.017311"
       x2="153.61893"
       y2="35.017311" />
    <linearGradient
       inkscape:collect="always"
       xlink:href="#linearGradient3796"
       id="linearGradient4877"
       gradientUnits="userSpaceOnUse"
       gradientTransform="matrix(0.73421786,0,0,0.73421786,-103.89799,-22.064753)"
       x1="150.09067"
       y1="35.017311"
       x2="153.61893"
       y2="35.017311" />
    <linearGradient
       inkscape:collect="always"
       xlink:href="#linearGradient3796"
       id="linearGradient4917"
       gradientUnits="userSpaceOnUse"
       gradientTransform="matrix(0.73421786,0,0,0.73421786,-84.561666,-18.734092)"
       x1="150.09067"
       y1="35.017311"
       x2="153.61893"
       y2="35.017311" />
    <linearGradient
       inkscape:collect="always"
       xlink:href="#linearGradient3796"
       id="linearGradient4921"
       gradientUnits="userSpaceOnUse"
       gradientTransform="matrix(0.73421786,0,0,0.73421786,-83.358928,-21.602158)"
       x1="150.09067"
       y1="35.017311"
       x2="153.61893"
       y2="35.017311" />
    <linearGradient
       inkscape:collect="always"
       xlink:href="#linearGradient3796"
       id="linearGradient4925"
       gradientUnits="userSpaceOnUse"
       gradientTransform="matrix(0.73421786,0,0,0.73421786,-82.063676,-24.840302)"
       x1="150.09067"
       y1="35.017311"
       x2="153.61893"
       y2="35.017311" />
    <linearGradient
       inkscape:collect="always"
       xlink:href="#linearGradient3796"
       id="linearGradient4929"
       gradientUnits="userSpaceOnUse"
       gradientTransform="matrix(0.73421786,0,0,0.73421786,-81.045971,-27.893404)"
       x1="150.09067"
       y1="35.017311"
       x2="153.61893"
       y2="35.017311" />
    <linearGradient
       inkscape:collect="always"
       xlink:href="#linearGradient3796"
       id="linearGradient4933"
       gradientUnits="userSpaceOnUse"
       gradientTransform="matrix(0.73421786,0,0,0.73421786,-79.843232,-30.946514)"
       x1="150.09067"
       y1="35.017311"
       x2="153.61893"
       y2="35.017311" />
    <linearGradient
       inkscape:collect="always"
       xlink:href="#linearGradient3796"
       id="linearGradient4937"
       gradientUnits="userSpaceOnUse"
       gradientTransform="matrix(0.73421786,0,0,0.73421786,-79.38064,-34.554723)"
       x1="150.09067"
       y1="35.017311"
       x2="153.61893"
       y2="35.017311" />
    <linearGradient
       inkscape:collect="always"
       xlink:href="#linearGradient3796"
       id="linearGradient4941"
       gradientUnits="userSpaceOnUse"
       gradientTransform="matrix(0.73421786,0,0,0.73421786,-82.7113,-32.796874)"
       x1="150.09067"
       y1="35.017311"
       x2="153.61893"
       y2="35.017311" />
    <linearGradient
       inkscape:collect="always"
       xlink:href="#linearGradient3796"
       id="linearGradient4945"
       gradientUnits="userSpaceOnUse"
       gradientTransform="matrix(0.73421786,0,0,0.73421786,-84.006557,-29.466217)"
       x1="150.09067"
       y1="35.017311"
       x2="153.61893"
       y2="35.017311" />
    <linearGradient
       inkscape:collect="always"
       xlink:href="#linearGradient3796"
       id="linearGradient4949"
       gradientUnits="userSpaceOnUse"
       gradientTransform="matrix(0.73421786,0,0,0.73421786,-84.83922,-26.043037)"
       x1="150.09067"
       y1="35.017311"
       x2="153.61893"
       y2="35.017311" />
    <linearGradient
       inkscape:collect="always"
       xlink:href="#linearGradient3796"
       id="linearGradient4953"
       gradientUnits="userSpaceOnUse"
       gradientTransform="matrix(0.73421786,0,0,0.73421786,-86.319513,-23.267491)"
       x1="150.09067"
       y1="35.017311"
       x2="153.61893"
       y2="35.017311" />
    <linearGradient
       inkscape:collect="always"
       xlink:href="#linearGradient3796"
       id="linearGradient4957"
       gradientUnits="userSpaceOnUse"
       gradientTransform="matrix(0.73421786,0,0,0.73421786,-87.522254,-20.214385)"
       x1="150.09067"
       y1="35.017311"
       x2="153.61893"
       y2="35.017311" />
    <linearGradient
       inkscape:collect="always"
       xlink:href="#linearGradient3796"
       id="linearGradient4961"
       gradientUnits="userSpaceOnUse"
       gradientTransform="matrix(0.73421786,0,0,0.73421786,-90.945427,-22.897413)"
       x1="150.09067"
       y1="35.017311"
       x2="153.61893"
       y2="35.017311" />
    <linearGradient
       inkscape:collect="always"
       xlink:href="#linearGradient3796"
       id="linearGradient4965"
       gradientUnits="userSpaceOnUse"
       gradientTransform="matrix(0.73421786,0,0,0.73421786,-88.910025,-27.893404)"
       x1="150.09067"
       y1="35.017311"
       x2="153.61893"
       y2="35.017311" />
    <linearGradient
       inkscape:collect="always"
       xlink:href="#linearGradient3796"
       id="linearGradient4969"
       gradientUnits="userSpaceOnUse"
       gradientTransform="matrix(0.73421786,0,0,0.73421786,-87.337216,-32.241769)"
       x1="150.09067"
       y1="35.017311"
       x2="153.61893"
       y2="35.017311" />
    <linearGradient
       inkscape:collect="always"
       xlink:href="#linearGradient3796"
       id="linearGradient4973"
       gradientUnits="userSpaceOnUse"
       gradientTransform="matrix(0.73421786,0,0,0.73421786,-92.333202,-30.29888)"
       x1="150.09067"
       y1="35.017311"
       x2="153.61893"
       y2="35.017311" />
    <linearGradient
       inkscape:collect="always"
       xlink:href="#linearGradient3796"
       id="linearGradient4977"
       gradientUnits="userSpaceOnUse"
       gradientTransform="matrix(0.73421786,0,0,0.73421786,-94.091052,-25.580449)"
       x1="150.09067"
       y1="35.017311"
       x2="153.61893"
       y2="35.017311" />
    <linearGradient
       inkscape:collect="always"
       xlink:href="#linearGradient3796"
       id="linearGradient4981"
       gradientUnits="userSpaceOnUse"
       gradientTransform="matrix(0.73421786,0,0,0.73421786,-98.902003,-23.91512)"
       x1="150.09067"
       y1="35.017311"
       x2="153.61893"
       y2="35.017311" />
    <linearGradient
       inkscape:collect="always"
       xlink:href="#linearGradient3796"
       id="linearGradient4985"
       gradientUnits="userSpaceOnUse"
       gradientTransform="matrix(0.73421786,0,0,0.73421786,-101.02993,-28.911105)"
       x1="150.09067"
       y1="35.017311"
       x2="153.61893"
       y2="35.017311" />
    <linearGradient
       inkscape:collect="always"
       xlink:href="#linearGradient3796"
       id="linearGradient4989"
       gradientUnits="userSpaceOnUse"
       gradientTransform="matrix(0.73421786,0,0,0.73421786,-103.06532,-35.202348)"
       x1="150.09067"
       y1="35.017311"
       x2="153.61893"
       y2="35.017311" />
    <linearGradient
       inkscape:collect="always"
       xlink:href="#linearGradient3796"
       id="linearGradient4993"
       gradientUnits="userSpaceOnUse"
       gradientTransform="matrix(0.73421786,0,0,0.73421786,-97.421705,-32.704356)"
       x1="150.09067"
       y1="35.017311"
       x2="153.61893"
       y2="35.017311" />
    <linearGradient
       inkscape:collect="always"
       xlink:href="#linearGradient3796"
       id="linearGradient4997"
       gradientUnits="userSpaceOnUse"
       gradientTransform="matrix(0.73421786,0,0,0.73421786,-106.48851,-30.483915)"
       x1="150.09067"
       y1="35.017311"
       x2="153.61893"
       y2="35.017311" />
    <linearGradient
       inkscape:collect="always"
       xlink:href="#linearGradient3796"
       id="linearGradient5001"
       gradientUnits="userSpaceOnUse"
       gradientTransform="matrix(0.73421786,0,0,0.73421786,-108.15384,-24.932819)"
       x1="150.09067"
       y1="35.017311"
       x2="153.61893"
       y2="35.017311" />
    <linearGradient
       inkscape:collect="always"
       xlink:href="#linearGradient3796"
       id="linearGradient5005"
       gradientUnits="userSpaceOnUse"
       gradientTransform="matrix(0.73421786,0,0,0.73421786,-91.685575,-36.590128)"
       x1="150.09067"
       y1="35.017311"
       x2="153.61893"
       y2="35.017311" />
    <linearGradient
       inkscape:collect="always"
       xlink:href="#linearGradient3796"
       id="linearGradient5009"
       gradientUnits="userSpaceOnUse"
       gradientTransform="matrix(0.73421786,0,0,0.73421786,-97.791784,-38.625526)"
       x1="150.09067"
       y1="35.017311"
       x2="153.61893"
       y2="35.017311" />
    <linearGradient
       inkscape:collect="always"
       xlink:href="#linearGradient3796"
       id="linearGradient5013"
       gradientUnits="userSpaceOnUse"
       gradientTransform="matrix(0.73421786,0,0,0.73421786,-85.486847,-36.220054)"
       x1="150.09067"
       y1="35.017311"
       x2="153.61893"
       y2="35.017311" />
    <linearGradient
       inkscape:collect="always"
       xlink:href="#linearGradient3796"
       id="linearGradient976"
       gradientUnits="userSpaceOnUse"
       gradientTransform="matrix(1.771561,0,0,1.771561,-25.665063,3.626022)"
       x1="19.976871"
       y1="-2.5388687"
       x2="47.830227"
       y2="26.456205" />
    <linearGradient
       inkscape:collect="always"
       xlink:href="#linearGradient3796"
       id="linearGradient985"
       gradientUnits="userSpaceOnUse"
       gradientTransform="matrix(2.2946256,0,0,2.2946256,-43.815973,-3.801151)"
       x1="19.976871"
       y1="-2.5388687"
       x2="47.830227"
       y2="26.456205" />
    <linearGradient
       inkscape:collect="always"
       xlink:href="#linearGradient3796"
       id="linearGradient1004"
       gradientUnits="userSpaceOnUse"
       gradientTransform="matrix(2.2946256,0,0,2.2946256,-45.438521,-61.987328)"
       x1="31.785713"
       y1="16.857143"
       x2="43.142853"
       y2="46.285709" />
    <linearGradient
       inkscape:collect="always"
       xlink:href="#linearGradient3796"
       id="linearGradient1020"
       gradientUnits="userSpaceOnUse"
       gradientTransform="matrix(2.2946256,0,0,2.2946256,-39.713604,-60.540334)"
       x1="21"
       y1="13.357141"
       x2="33.214287"
       y2="46.42857" />
    <linearGradient
       inkscape:collect="always"
       xlink:href="#linearGradient3796"
       id="linearGradient1043"
       gradientUnits="userSpaceOnUse"
       gradientTransform="matrix(0.73421786,0,0,0.73421786,-107.04362,-12.165292)"
       x1="150.09067"
       y1="35.017311"
       x2="153.61893"
       y2="35.017311" />
  </defs>
  <sodipodi:namedview
     id="base"
     pagecolor="#ffffff"
     bordercolor="#666666"
     borderopacity="1.0"
     inkscape:pageopacity="0.0"
     inkscape:pageshadow="2"
     inkscape:zoom="4.6403883"
     inkscape:cx="29.404343"
     inkscape:cy="36.275511"
     inkscape:current-layer="layer1"
     showgrid="true"
     inkscape:grid-bbox="true"
     inkscape:document-units="px"
     inkscape:window-width="1360"
     inkscape:window-height="681"
     inkscape:window-x="0"
     inkscape:window-y="0"
     inkscape:window-maximized="1"
     inkscape:showpageshadow="false"
     inkscape:pagecheckerboard="true" />
  <metadata
     id="metadata5186">
    <rdf:RDF>
      <cc:Work
         rdf:about="">
        <dc:format>image/svg+xml</dc:format>
        <dc:type
           rdf:resource="http://purl.org/dc/dcmitype/StillImage" />
        <dc:title></dc:title>
      </cc:Work>
    </rdf:RDF>
  </metadata>
  <g
     id="layer1"
     inkscape:label="Layer 1"
     inkscape:groupmode="layer"
     transform="translate(0,16)">
    <path
       style="fill:url(#linearGradient1004);fill-opacity:1;stroke:none;stroke-width:1.29525626;stroke-linecap:butt;stroke-linejoin:round;stroke-miterlimit:4;stroke-dasharray:none;stroke-opacity:1"
       d="M 61.364181,5.0629035 28.41357,11.319094 28.55018,44.795903 61.364181,37.846548 Z M 37.601792,10.916853 a 1.2952563,1.2952563 0 0 1 1.295256,1.295258 1.2952563,1.2952563 0 0 1 -1.295256,1.295257 1.2952563,1.2952563 0 0 1 -1.295253,-1.295257 1.2952563,1.2952563 0 0 1 1.295253,-1.295258 z m -4.191874,2.997815 a 1.2952563,1.2952563 0 0 1 1.295257,1.295254 1.2952563,1.2952563 0 0 1 -1.295257,1.295256 1.2952563,1.2952563 0 0 1 -1.295254,-1.295256 1.2952563,1.2952563 0 0 1 1.295254,-1.295254 z m 5.517488,1.224414 a 1.2952563,1.2952563 0 0 1 1.295257,1.295257 1.2952563,1.2952563 0 0 1 -1.295257,1.295257 1.2952563,1.2952563 0 0 1 -1.295256,-1.295257 1.2952563,1.2952563 0 0 1 1.295256,-1.295257 z m -7.614687,2.388134 a 1.2952563,1.2952563 0 0 1 1.295255,1.295259 1.2952563,1.2952563 0 0 1 -1.295255,1.295254 1.2952563,1.2952563 0 0 1 -1.295259,-1.295254 1.2952563,1.2952563 0 0 1 1.295259,-1.295259 z m 2.775189,2.843492 a 1.2952563,1.2952563 0 0 1 1.295255,1.295257 1.2952563,1.2952563 0 0 1 -1.295255,1.295258 1.2952563,1.2952563 0 0 1 -1.29526,-1.295258 1.2952563,1.2952563 0 0 1 1.29526,-1.295257 z"
       id="path3022"
       inkscape:connector-curvature="0" />
    <path
       style="fill:url(#linearGradient1020);fill-opacity:1;stroke:none;stroke-width:1.29525626;stroke-linecap:butt;stroke-linejoin:round;stroke-miterlimit:4;stroke-dasharray:none;stroke-opacity:1"
       d="m 26.172171,11.48859 c -0.128154,0.246649 -0.254531,0.510491 -0.384532,0.743763 -0.07522,0.134954 -0.169593,0.27182 -0.250452,0.407294 a 1.2952563,1.2952563 0 0 1 0.470546,0.996743 1.2952563,1.2952563 0 0 1 -1.295255,1.295254 1.2952563,1.2952563 0 0 1 -0.632454,-0.164439 c -0.633751,0.8134 -1.344227,1.629485 -2.112378,2.441259 a 1.2952563,1.2952563 0 0 1 0.432598,0.961321 1.2952563,1.2952563 0 0 1 -1.29526,1.295258 1.2952563,1.2952563 0 0 1 -0.966382,-0.435127 c -0.453847,0.429749 -0.951274,0.843884 -1.426804,1.26743 a 1.2952563,1.2952563 0 0 1 0.819653,1.20418 1.2952563,1.2952563 0 0 1 -1.295253,1.295259 1.2952563,1.2952563 0 0 1 -1.252251,-0.973973 c -1.013677,0.846258 -2.053705,1.674476 -3.099006,2.469082 a 1.2952563,1.2952563 0 0 1 0.371882,0.910727 1.2952563,1.2952563 0 0 1 -1.295253,1.295255 1.2952563,1.2952563 0 0 1 -1.130822,-0.670394 c -1.329027,0.96182 -2.6108078,1.839077 -3.8377026,2.661348 a 1.2952563,1.2952563 0 0 1 0.3440514,0.877837 1.2952563,1.2952563 0 0 1 -0.2352729,0.741231 L 28.55018,44.795903 28.739913,11.82252 28.380682,11.579663 a 1.2952563,1.2952563 0 0 1 -1.077696,0.576794 1.2952563,1.2952563 0 0 1 -1.130815,-0.667867 z m -1.737973,4.462564 a 1.2952563,1.2952563 0 0 1 1.295257,1.295257 1.2952563,1.2952563 0 0 1 -1.295257,1.295255 1.2952563,1.2952563 0 0 1 -1.295256,-1.295255 1.2952563,1.2952563 0 0 1 1.295256,-1.295257 z m 1.242129,3.288737 a 1.2952563,1.2952563 0 0 1 1.295259,1.295253 1.2952563,1.2952563 0 0 1 -1.295259,1.295256 1.2952563,1.2952563 0 0 1 -1.295255,-1.295256 1.2952563,1.2952563 0 0 1 1.295255,-1.295253 z m -3.903476,0.731111 a 1.2952563,1.2952563 0 0 1 1.295255,1.295256 1.2952563,1.2952563 0 0 1 -1.295255,1.295252 1.2952563,1.2952563 0 0 1 -1.295255,-1.295252 1.2952563,1.2952563 0 0 1 1.295255,-1.295256 z m -5.332815,3.283676 a 1.2952563,1.2952563 0 0 1 1.29526,1.295255 1.2952563,1.2952563 0 0 1 -1.29526,1.295255 1.2952563,1.2952563 0 0 1 -1.295255,-1.295255 1.2952563,1.2952563 0 0 1 1.295255,-1.295255 z m 8.41158,0.328874 a 1.2952563,1.2952563 0 0 1 1.295257,1.295255 1.2952563,1.2952563 0 0 1 -1.295257,1.295255 1.2952563,1.2952563 0 0 1 -1.295256,-1.295255 1.2952563,1.2952563 0 0 1 1.295256,-1.295255 z m -4.811674,0.832303 a 1.2952563,1.2952563 0 0 1 1.295256,1.295258 1.2952563,1.2952563 0 0 1 -1.295256,1.295257 1.2952563,1.2952563 0 0 1 -1.295254,-1.295257 1.2952563,1.2952563 0 0 1 1.295254,-1.295258 z m -8.234492,3.331743 a 1.2952563,1.2952563 0 0 1 1.295258,1.295256 1.2952563,1.2952563 0 0 1 -1.295258,1.295258 1.2952563,1.2952563 0 0 1 -1.295256,-1.295258 1.2952563,1.2952563 0 0 1 1.295256,-1.295256 z m 11.649715,0.268157 a 1.2952563,1.2952563 0 0 1 1.295258,1.295254 1.2952563,1.2952563 0 0 1 -1.295258,1.29526 1.2952563,1.2952563 0 0 1 -1.295257,-1.29526 1.2952563,1.2952563 0 0 1 1.295257,-1.295254 z m -6.235951,0.240335 a 1.2952563,1.2952563 0 0 1 1.295258,1.295253 1.2952563,1.2952563 0 0 1 -1.295258,1.295257 1.2952563,1.2952563 0 0 1 -1.295256,-1.295257 1.2952563,1.2952563 0 0 1 1.295256,-1.295253 z"
       id="path3024"
       inkscape:connector-curvature="0" />
    <path
       style="fill:url(#linearGradient985);fill-opacity:1;stroke:none;stroke-width:1.29525626;stroke-linecap:butt;stroke-linejoin:round;stroke-miterlimit:4;stroke-dasharray:none;stroke-opacity:1"
       d="M 35.478516 6.4101562 L 33.503906 6.7285156 C 33.171258 7.9762702 32.799299 9.310245 32.400391 10.685547 A 1.2952563 1.2952563 0 0 1 32.578125 10.669922 A 1.2952563 1.2952563 0 0 1 33.873047 11.964844 A 1.2952563 1.2952563 0 0 1 32.578125 13.261719 A 1.2952563 1.2952563 0 0 1 31.720703 12.9375 C 31.543287 13.521415 31.379479 14.089877 31.193359 14.679688 A 1.2952563 1.2952563 0 0 1 31.466797 14.650391 A 1.2952563 1.2952563 0 0 1 32.761719 15.945312 A 1.2952563 1.2952563 0 0 1 31.466797 17.240234 A 1.2952563 1.2952563 0 0 1 30.5 16.808594 C 30.337614 17.296263 30.183537 17.785203 30.015625 18.269531 A 1.2952563 1.2952563 0 0 1 30.171875 18.257812 A 1.2952563 1.2952563 0 0 1 31.466797 19.552734 A 1.2952563 1.2952563 0 0 1 30.171875 20.847656 A 1.2952563 1.2952563 0 0 1 29.232422 20.445312 C 29.039973 20.96327 28.836632 21.455247 28.638672 21.960938 A 1.2952563 1.2952563 0 0 1 29.892578 23.253906 A 1.2952563 1.2952563 0 0 1 28.597656 24.548828 A 1.2952563 1.2952563 0 0 1 27.720703 24.205078 C 27.433914 24.870797 27.146442 25.541761 26.849609 26.160156 L 28.628906 27.339844 L 30.337891 27.009766 A 1.2952563 1.2952563 0 0 1 29.339844 25.75 A 1.2952563 1.2952563 0 0 1 30.634766 24.455078 A 1.2952563 1.2952563 0 0 1 31.929688 25.75 A 1.2952563 1.2952563 0 0 1 31.373047 26.8125 L 33.789062 26.349609 A 1.2952563 1.2952563 0 0 1 33.685547 25.84375 A 1.2952563 1.2952563 0 0 1 34.980469 24.548828 A 1.2952563 1.2952563 0 0 1 36.275391 25.84375 A 1.2952563 1.2952563 0 0 1 36.275391 25.875 L 61.363281 21.0625 L 42.089844 10.152344 A 1.2952563 1.2952563 0 0 1 41.039062 10.689453 A 1.2952563 1.2952563 0 0 1 39.744141 9.3945312 A 1.2952563 1.2952563 0 0 1 39.849609 8.8847656 L 35.478516 6.4101562 z M 37.111328 8.6367188 A 1.2952563 1.2952563 0 0 1 38.40625 9.9316406 A 1.2952563 1.2952563 0 0 1 37.111328 11.226562 A 1.2952563 1.2952563 0 0 1 35.816406 9.9316406 A 1.2952563 1.2952563 0 0 1 37.111328 8.6367188 z M 43.125 12.199219 A 1.2952563 1.2952563 0 0 1 44.419922 13.494141 A 1.2952563 1.2952563 0 0 1 43.125 14.789062 A 1.2952563 1.2952563 0 0 1 41.828125 13.494141 A 1.2952563 1.2952563 0 0 1 43.125 12.199219 z M 39.330078 12.613281 A 1.2952563 1.2952563 0 0 1 40.625 13.908203 A 1.2952563 1.2952563 0 0 1 39.330078 15.203125 A 1.2952563 1.2952563 0 0 1 38.035156 13.908203 A 1.2952563 1.2952563 0 0 1 39.330078 12.613281 z M 35.167969 12.892578 A 1.2952563 1.2952563 0 0 1 36.462891 14.1875 A 1.2952563 1.2952563 0 0 1 35.167969 15.482422 A 1.2952563 1.2952563 0 0 1 33.873047 14.1875 A 1.2952563 1.2952563 0 0 1 35.167969 12.892578 z M 38.40625 16.359375 A 1.2952563 1.2952563 0 0 1 39.701172 17.654297 A 1.2952563 1.2952563 0 0 1 38.40625 18.951172 A 1.2952563 1.2952563 0 0 1 37.111328 17.654297 A 1.2952563 1.2952563 0 0 1 38.40625 16.359375 z M 34.148438 17.146484 A 1.2952563 1.2952563 0 0 1 35.443359 18.441406 A 1.2952563 1.2952563 0 0 1 34.148438 19.736328 A 1.2952563 1.2952563 0 0 1 32.853516 18.441406 A 1.2952563 1.2952563 0 0 1 34.148438 17.146484 z M 42.759766 17.863281 A 1.2952563 1.2952563 0 0 1 44.054688 19.158203 A 1.2952563 1.2952563 0 0 1 42.759766 20.453125 A 1.2952563 1.2952563 0 0 1 41.464844 19.158203 A 1.2952563 1.2952563 0 0 1 42.759766 17.863281 z M 36.554688 20.847656 A 1.2952563 1.2952563 0 0 1 37.849609 22.142578 A 1.2952563 1.2952563 0 0 1 36.554688 23.4375 A 1.2952563 1.2952563 0 0 1 35.259766 22.142578 A 1.2952563 1.2952563 0 0 1 36.554688 20.847656 z M 32.115234 21.033203 A 1.2952563 1.2952563 0 0 1 33.410156 22.328125 A 1.2952563 1.2952563 0 0 1 32.115234 23.623047 A 1.2952563 1.2952563 0 0 1 30.820312 22.328125 A 1.2952563 1.2952563 0 0 1 32.115234 21.033203 z "
       transform="translate(0,-16)"
       id="path3026" />
    <circle
       r="1.2952563"
       cy="17.523327"
       cx="14.812943"
       id="circle4630"
       style="opacity:1;fill:url(#linearGradient4638);fill-opacity:1;stroke:none;stroke-width:9.79091454;stroke-linecap:round;stroke-linejoin:round;stroke-miterlimit:4;stroke-dasharray:none;stroke-dashoffset:0;stroke-opacity:1" />
    <circle
       style="opacity:1;fill:url(#linearGradient4642);fill-opacity:1;stroke:none;stroke-width:9.79091454;stroke-linecap:round;stroke-linejoin:round;stroke-miterlimit:4;stroke-dasharray:none;stroke-dashoffset:0;stroke-opacity:1"
       id="circle4640"
       cx="20.549082"
       cy="12.249786"
       r="1.2952563" />
    <circle
       r="1.2952563"
       cy="13.452524"
       cx="23.602184"
       id="circle4644"
       style="opacity:1;fill:url(#linearGradient4646);fill-opacity:1;stroke:none;stroke-width:9.79091454;stroke-linecap:round;stroke-linejoin:round;stroke-miterlimit:4;stroke-dasharray:none;stroke-dashoffset:0;stroke-opacity:1" />
    <circle
       style="opacity:1;fill:url(#linearGradient4650);fill-opacity:1;stroke:none;stroke-width:9.79091454;stroke-linecap:round;stroke-linejoin:round;stroke-miterlimit:4;stroke-dasharray:none;stroke-dashoffset:0;stroke-opacity:1"
       id="circle4648"
       cx="17.588493"
       cy="14.932814"
       r="1.2952563" />
    <circle
       r="1.2952563"
       cy="20.11384"
       cx="11.85236"
       id="circle4652"
       style="opacity:1;fill:url(#linearGradient4654);fill-opacity:1;stroke:none;stroke-width:9.79091454;stroke-linecap:round;stroke-linejoin:round;stroke-miterlimit:4;stroke-dasharray:none;stroke-dashoffset:0;stroke-opacity:1" />
    <circle
       style="opacity:1;fill:url(#linearGradient4658);fill-opacity:1;stroke:none;stroke-width:9.79091454;stroke-linecap:round;stroke-linejoin:round;stroke-miterlimit:4;stroke-dasharray:none;stroke-dashoffset:0;stroke-opacity:1"
       id="circle4656"
       cx="10.001994"
       cy="25.202343"
       r="1.2952563" />
    <circle
       r="1.2952563"
       cy="23.351978"
       cx="12.777537"
       id="circle4660"
       style="opacity:1;fill:url(#linearGradient4662);fill-opacity:1;stroke:none;stroke-width:9.79091454;stroke-linecap:round;stroke-linejoin:round;stroke-miterlimit:4;stroke-dasharray:none;stroke-dashoffset:0;stroke-opacity:1" />
    <circle
       style="opacity:1;fill:url(#linearGradient4666);fill-opacity:1;stroke:none;stroke-width:9.79091454;stroke-linecap:round;stroke-linejoin:round;stroke-miterlimit:4;stroke-dasharray:none;stroke-dashoffset:0;stroke-opacity:1"
       id="circle4664"
       cx="15.923165"
       cy="20.853992"
       r="1.2952563" />
    <circle
       r="1.2952563"
       cy="18.541035"
       cx="18.328634"
       id="circle4668"
       style="opacity:1;fill:url(#linearGradient4670);fill-opacity:1;stroke:none;stroke-width:9.79091454;stroke-linecap:round;stroke-linejoin:round;stroke-miterlimit:4;stroke-dasharray:none;stroke-dashoffset:0;stroke-opacity:1" />
    <circle
       style="opacity:1;fill:url(#linearGradient4674);fill-opacity:1;stroke:none;stroke-width:9.79091454;stroke-linecap:round;stroke-linejoin:round;stroke-miterlimit:4;stroke-dasharray:none;stroke-dashoffset:0;stroke-opacity:1"
       id="circle4672"
       cx="21.289221"
       cy="15.950521"
       r="1.2952563" />
    <circle
       r="1.2952563"
       cy="26.960199"
       cx="7.5965157"
       id="circle4676"
       style="opacity:1;fill:url(#linearGradient4678);fill-opacity:1;stroke:none;stroke-width:9.79091454;stroke-linecap:round;stroke-linejoin:round;stroke-miterlimit:4;stroke-dasharray:none;stroke-dashoffset:0;stroke-opacity:1" />
    <circle
       style="opacity:1;fill:url(#linearGradient4817);fill-opacity:1;stroke:none;stroke-width:9.79091454;stroke-linecap:round;stroke-linejoin:round;stroke-miterlimit:4;stroke-dasharray:none;stroke-dashoffset:0;stroke-opacity:1"
       id="circle4815"
       cx="8.1516266"
       cy="22.241764"
       r="1.2952563" />
    <circle
       r="1.2952563"
       cy="23.814569"
       cx="4.8209672"
       id="circle4819"
       style="opacity:1;fill:url(#linearGradient4821);fill-opacity:1;stroke:none;stroke-width:9.79091454;stroke-linecap:round;stroke-linejoin:round;stroke-miterlimit:4;stroke-dasharray:none;stroke-dashoffset:0;stroke-opacity:1" />
    <circle
       style="opacity:1;fill:url(#linearGradient4825);fill-opacity:1;stroke:none;stroke-width:9.79091454;stroke-linecap:round;stroke-linejoin:round;stroke-miterlimit:4;stroke-dasharray:none;stroke-dashoffset:0;stroke-opacity:1"
       id="circle4823"
       cx="4.9134846"
       cy="19.188658"
       r="1.2952563" />
    <circle
       r="1.2952563"
       cy="17.430807"
       cx="8.3366604"
       id="circle4827"
       style="opacity:1;fill:url(#linearGradient4829);fill-opacity:1;stroke:none;stroke-width:9.79091454;stroke-linecap:round;stroke-linejoin:round;stroke-miterlimit:4;stroke-dasharray:none;stroke-dashoffset:0;stroke-opacity:1" />
    <circle
       style="opacity:1;fill:url(#linearGradient4833);fill-opacity:1;stroke:none;stroke-width:9.79091454;stroke-linecap:round;stroke-linejoin:round;stroke-miterlimit:4;stroke-dasharray:none;stroke-dashoffset:0;stroke-opacity:1"
       id="circle4831"
       cx="11.759834"
       cy="15.21037"
       r="1.2952563" />
    <circle
       r="1.2952563"
       cy="12.249783"
       cx="14.35035"
       id="circle4835"
       style="opacity:1;fill:url(#linearGradient4837);fill-opacity:1;stroke:none;stroke-width:9.79091454;stroke-linecap:round;stroke-linejoin:round;stroke-miterlimit:4;stroke-dasharray:none;stroke-dashoffset:0;stroke-opacity:1" />
    <circle
       style="opacity:1;fill:url(#linearGradient4841);fill-opacity:1;stroke:none;stroke-width:9.79091454;stroke-linecap:round;stroke-linejoin:round;stroke-miterlimit:4;stroke-dasharray:none;stroke-dashoffset:0;stroke-opacity:1"
       id="circle4839"
       cx="25.082472"
       cy="10.399426"
       r="1.2952563" />
    <circle
       style="opacity:1;fill:url(#linearGradient4845);fill-opacity:1;stroke:none;stroke-width:9.79091454;stroke-linecap:round;stroke-linejoin:round;stroke-miterlimit:4;stroke-dasharray:none;stroke-dashoffset:0;stroke-opacity:1"
       id="circle4843"
       cx="17.310938"
       cy="10.214385"
       r="1.2952563" />
    <circle
       r="1.2952563"
       cy="7.7163877"
       cx="20.919144"
       id="circle4847"
       style="opacity:1;fill:url(#linearGradient4849);fill-opacity:1;stroke:none;stroke-width:9.79091454;stroke-linecap:round;stroke-linejoin:round;stroke-miterlimit:4;stroke-dasharray:none;stroke-dashoffset:0;stroke-opacity:1" />
    <circle
       style="opacity:1;fill:url(#linearGradient4853);fill-opacity:1;stroke:none;stroke-width:9.79091454;stroke-linecap:round;stroke-linejoin:round;stroke-miterlimit:4;stroke-dasharray:none;stroke-dashoffset:0;stroke-opacity:1"
       id="circle4851"
       cx="16.29323"
       cy="5.2183938"
       r="1.2952563" />
    <circle
       r="1.2952563"
       cy="7.8089085"
       cx="12.129915"
       id="circle4855"
       style="opacity:1;fill:url(#linearGradient4857);fill-opacity:1;stroke:none;stroke-width:9.79091454;stroke-linecap:round;stroke-linejoin:round;stroke-miterlimit:4;stroke-dasharray:none;stroke-dashoffset:0;stroke-opacity:1" />
    <circle
       style="opacity:1;fill:url(#linearGradient4861);fill-opacity:1;stroke:none;stroke-width:9.79091454;stroke-linecap:round;stroke-linejoin:round;stroke-miterlimit:4;stroke-dasharray:none;stroke-dashoffset:0;stroke-opacity:1"
       id="circle4859"
       cx="8.5216961"
       cy="10.584455"
       r="1.2952563" />
    <circle
       r="1.2952563"
       cy="13.545041"
       cx="4.4508882"
       id="circle4863"
       style="opacity:1;fill:url(#linearGradient1043);fill-opacity:1;stroke:none;stroke-width:9.79091454;stroke-linecap:round;stroke-linejoin:round;stroke-miterlimit:4;stroke-dasharray:none;stroke-dashoffset:0;stroke-opacity:1" />
    <circle
       style="opacity:1;fill:url(#linearGradient4873);fill-opacity:1;stroke:none;stroke-width:9.79091454;stroke-linecap:round;stroke-linejoin:round;stroke-miterlimit:4;stroke-dasharray:none;stroke-dashoffset:0;stroke-opacity:1"
       id="circle4867"
       cx="3.6182244"
       cy="6.9762416"
       r="1.2952563" />
    <ellipse
       r="1"
       cy="13.370883"
       cx="11.599271"
       id="ellipse4871"
       style="opacity:1;fill:url(#linearGradient4865);fill-opacity:1;stroke:none;stroke-width:7.55905533;stroke-linecap:round;stroke-linejoin:round;stroke-miterlimit:4;stroke-dasharray:none;stroke-dashoffset:0;stroke-opacity:1" />
    <circle
       r="1.2952563"
       cy="3.6455817"
       cx="7.5965109"
       id="circle4875"
       style="opacity:1;fill:url(#linearGradient4877);fill-opacity:1;stroke:none;stroke-width:9.79091454;stroke-linecap:round;stroke-linejoin:round;stroke-miterlimit:4;stroke-dasharray:none;stroke-dashoffset:0;stroke-opacity:1" />
    <circle
       style="opacity:1;fill:url(#linearGradient4917);fill-opacity:1;stroke:none;stroke-width:9.79091454;stroke-linecap:round;stroke-linejoin:round;stroke-miterlimit:4;stroke-dasharray:none;stroke-dashoffset:0;stroke-opacity:1"
       id="circle4915"
       cx="26.932838"
       cy="6.9762416"
       r="1.2952563" />
    <circle
       r="1.2952563"
       cy="4.1081738"
       cx="28.135584"
       id="circle4919"
       style="opacity:1;fill:url(#linearGradient4921);fill-opacity:1;stroke:none;stroke-width:9.79091454;stroke-linecap:round;stroke-linejoin:round;stroke-miterlimit:4;stroke-dasharray:none;stroke-dashoffset:0;stroke-opacity:1" />
    <circle
       style="opacity:1;fill:url(#linearGradient4925);fill-opacity:1;stroke:none;stroke-width:9.79091454;stroke-linecap:round;stroke-linejoin:round;stroke-miterlimit:4;stroke-dasharray:none;stroke-dashoffset:0;stroke-opacity:1"
       id="circle4923"
       cx="29.430838"
       cy="0.87003279"
       r="1.2952563" />
    <circle
       r="1.2952563"
       cy="-2.1830711"
       cx="30.448536"
       id="circle4927"
       style="opacity:1;fill:url(#linearGradient4929);fill-opacity:1;stroke:none;stroke-width:9.79091454;stroke-linecap:round;stroke-linejoin:round;stroke-miterlimit:4;stroke-dasharray:none;stroke-dashoffset:0;stroke-opacity:1" />
    <circle
       style="opacity:1;fill:url(#linearGradient4933);fill-opacity:1;stroke:none;stroke-width:9.79091454;stroke-linecap:round;stroke-linejoin:round;stroke-miterlimit:4;stroke-dasharray:none;stroke-dashoffset:0;stroke-opacity:1"
       id="circle4931"
       cx="31.651274"
       cy="-5.2361751"
       r="1.2952563" />
    <circle
       r="1.2952563"
       cy="-8.844389"
       cx="32.113869"
       id="circle4935"
       style="opacity:1;fill:url(#linearGradient4937);fill-opacity:1;stroke:none;stroke-width:9.79091454;stroke-linecap:round;stroke-linejoin:round;stroke-miterlimit:4;stroke-dasharray:none;stroke-dashoffset:0;stroke-opacity:1" />
    <circle
       style="opacity:1;fill:url(#linearGradient4941);fill-opacity:1;stroke:none;stroke-width:9.79091454;stroke-linecap:round;stroke-linejoin:round;stroke-miterlimit:4;stroke-dasharray:none;stroke-dashoffset:0;stroke-opacity:1"
       id="circle4939"
       cx="28.783213"
       cy="-7.0865417"
       r="1.2952563" />
    <circle
       r="1.2952563"
       cy="-3.7558823"
       cx="27.487953"
       id="circle4943"
       style="opacity:1;fill:url(#linearGradient4945);fill-opacity:1;stroke:none;stroke-width:9.79091454;stroke-linecap:round;stroke-linejoin:round;stroke-miterlimit:4;stroke-dasharray:none;stroke-dashoffset:0;stroke-opacity:1" />
    <circle
       style="opacity:1;fill:url(#linearGradient4949);fill-opacity:1;stroke:none;stroke-width:9.79091454;stroke-linecap:round;stroke-linejoin:round;stroke-miterlimit:4;stroke-dasharray:none;stroke-dashoffset:0;stroke-opacity:1"
       id="circle4947"
       cx="26.655287"
       cy="-0.33270517"
       r="1.2952563" />
    <circle
       r="1.2952563"
       cy="2.4428439"
       cx="25.174997"
       id="circle4951"
       style="opacity:1;fill:url(#linearGradient4953);fill-opacity:1;stroke:none;stroke-width:9.79091454;stroke-linecap:round;stroke-linejoin:round;stroke-miterlimit:4;stroke-dasharray:none;stroke-dashoffset:0;stroke-opacity:1" />
    <circle
       style="opacity:1;fill:url(#linearGradient4957);fill-opacity:1;stroke:none;stroke-width:9.79091454;stroke-linecap:round;stroke-linejoin:round;stroke-miterlimit:4;stroke-dasharray:none;stroke-dashoffset:0;stroke-opacity:1"
       id="circle4955"
       cx="23.97226"
       cy="5.4959488"
       r="1.2952563" />
    <circle
       r="1.2952563"
       cy="2.8129175"
       cx="20.549082"
       id="circle4959"
       style="opacity:1;fill:url(#linearGradient4961);fill-opacity:1;stroke:none;stroke-width:9.79091454;stroke-linecap:round;stroke-linejoin:round;stroke-miterlimit:4;stroke-dasharray:none;stroke-dashoffset:0;stroke-opacity:1" />
    <circle
       style="opacity:1;fill:url(#linearGradient4965);fill-opacity:1;stroke:none;stroke-width:9.79091454;stroke-linecap:round;stroke-linejoin:round;stroke-miterlimit:4;stroke-dasharray:none;stroke-dashoffset:0;stroke-opacity:1"
       id="circle4963"
       cx="22.584482"
       cy="-2.1830711"
       r="1.2952563" />
    <circle
       r="1.2952563"
       cy="-6.5314322"
       cx="24.157297"
       id="circle4967"
       style="opacity:1;fill:url(#linearGradient4969);fill-opacity:1;stroke:none;stroke-width:9.79091454;stroke-linecap:round;stroke-linejoin:round;stroke-miterlimit:4;stroke-dasharray:none;stroke-dashoffset:0;stroke-opacity:1" />
    <circle
       style="opacity:1;fill:url(#linearGradient4973);fill-opacity:1;stroke:none;stroke-width:9.79091454;stroke-linecap:round;stroke-linejoin:round;stroke-miterlimit:4;stroke-dasharray:none;stroke-dashoffset:0;stroke-opacity:1"
       id="circle4971"
       cx="19.161301"
       cy="-4.5885482"
       r="1.2952563" />
    <circle
       r="1.2952563"
       cy="0.1298864"
       cx="17.40345"
       id="circle4975"
       style="opacity:1;fill:url(#linearGradient4977);fill-opacity:1;stroke:none;stroke-width:9.79091454;stroke-linecap:round;stroke-linejoin:round;stroke-miterlimit:4;stroke-dasharray:none;stroke-dashoffset:0;stroke-opacity:1" />
    <circle
       style="opacity:1;fill:url(#linearGradient4981);fill-opacity:1;stroke:none;stroke-width:9.79091454;stroke-linecap:round;stroke-linejoin:round;stroke-miterlimit:4;stroke-dasharray:none;stroke-dashoffset:0;stroke-opacity:1"
       id="circle4979"
       cx="12.592508"
       cy="1.7952164"
       r="1.2952563" />
    <circle
       r="1.2952563"
       cy="-3.2007723"
       cx="10.464584"
       id="circle4983"
       style="opacity:1;fill:url(#linearGradient4985);fill-opacity:1;stroke:none;stroke-width:9.79091454;stroke-linecap:round;stroke-linejoin:round;stroke-miterlimit:4;stroke-dasharray:none;stroke-dashoffset:0;stroke-opacity:1" />
    <circle
       style="opacity:1;fill:url(#linearGradient4989);fill-opacity:1;stroke:none;stroke-width:9.79091454;stroke-linecap:round;stroke-linejoin:round;stroke-miterlimit:4;stroke-dasharray:none;stroke-dashoffset:0;stroke-opacity:1"
       id="circle4987"
       cx="8.429183"
       cy="-9.4920187"
       r="1.2952563" />
    <circle
       r="1.2952563"
       cy="-6.9940233"
       cx="14.072798"
       id="circle4991"
       style="opacity:1;fill:url(#linearGradient4993);fill-opacity:1;stroke:none;stroke-width:9.79091454;stroke-linecap:round;stroke-linejoin:round;stroke-miterlimit:4;stroke-dasharray:none;stroke-dashoffset:0;stroke-opacity:1" />
    <circle
       style="opacity:1;fill:url(#linearGradient4997);fill-opacity:1;stroke:none;stroke-width:9.79091454;stroke-linecap:round;stroke-linejoin:round;stroke-miterlimit:4;stroke-dasharray:none;stroke-dashoffset:0;stroke-opacity:1"
       id="circle4995"
       cx="5.0060015"
       cy="-4.7735844"
       r="1.2952563" />
    <circle
       r="1.2952563"
       cy="0.77751476"
       cx="3.3406703"
       id="circle4999"
       style="opacity:1;fill:url(#linearGradient5001);fill-opacity:1;stroke:none;stroke-width:9.79091454;stroke-linecap:round;stroke-linejoin:round;stroke-miterlimit:4;stroke-dasharray:none;stroke-dashoffset:0;stroke-opacity:1" />
    <circle
       style="opacity:1;fill:url(#linearGradient5005);fill-opacity:1;stroke:none;stroke-width:9.79091454;stroke-linecap:round;stroke-linejoin:round;stroke-miterlimit:4;stroke-dasharray:none;stroke-dashoffset:0;stroke-opacity:1"
       id="circle5003"
       cx="19.808933"
       cy="-10.879792"
       r="1.2952563" />
    <circle
       r="1.2952563"
       cy="-12.915194"
       cx="13.702728"
       id="circle5007"
       style="opacity:1;fill:url(#linearGradient5009);fill-opacity:1;stroke:none;stroke-width:9.79091454;stroke-linecap:round;stroke-linejoin:round;stroke-miterlimit:4;stroke-dasharray:none;stroke-dashoffset:0;stroke-opacity:1" />
    <circle
       style="opacity:1;fill:url(#linearGradient5013);fill-opacity:1;stroke:none;stroke-width:9.79091454;stroke-linecap:round;stroke-linejoin:round;stroke-miterlimit:4;stroke-dasharray:none;stroke-dashoffset:0;stroke-opacity:1"
       id="circle5011"
       cx="26.007662"
       cy="-10.50972"
       r="1.2952563" />
    <path
       style="fill:none;fill-opacity:1;stroke:none;stroke-width:1.29525626;stroke-linecap:butt;stroke-linejoin:round;stroke-miterlimit:4;stroke-dasharray:none;stroke-opacity:1"
       d="m 35.479297,-9.5896834 -1.975774,0.318753 C 31.91817,-3.3242956 29.57181,4.4903832 26.850155,10.160445 l 1.778448,1.178886 32.735578,-6.2764275 z"
       id="path966"
       inkscape:connector-curvature="0" />
    <path
       id="path979"
       d="m 26.850155,10.160445 1.778448,1.178886 32.735578,-6.2764275 -25.884884,-14.6525869 -1.975774,0.318753"
       style="fill:none;fill-opacity:1;stroke:#000000;stroke-width:1;stroke-linecap:butt;stroke-linejoin:round;stroke-miterlimit:4;stroke-dasharray:none;stroke-opacity:1"
       inkscape:connector-curvature="0"
       sodipodi:nodetypes="ccccc" />
    <path
       sodipodi:nodetypes="ccccc"
       inkscape:connector-curvature="0"
       id="path1002"
       d="M 28.549091,44.797123 61.36404,37.847354 V 5.0625065 L 28.413315,11.319727 Z"
       style="fill:none;fill-opacity:1;stroke:#000000;stroke-width:1;stroke-linecap:butt;stroke-linejoin:round;stroke-miterlimit:4;stroke-dasharray:none;stroke-opacity:1" />
    <path
       sodipodi:nodetypes="ccc"
       inkscape:connector-curvature="0"
       id="path1011"
       d="M 6.8849944,29.235116 28.549091,44.797123 28.74112,11.823076"
       style="fill:none;fill-opacity:1;stroke:#000000;stroke-width:1;stroke-linecap:butt;stroke-linejoin:round;stroke-miterlimit:4;stroke-dasharray:none;stroke-opacity:1" />
  </g>
</svg>
