<?xml version="1.0" encoding="UTF-8" standalone="no"?>
<!-- Created with Inkscape (http://www.inkscape.org/) -->

<svg
   xmlns:dc="http://purl.org/dc/elements/1.1/"
   xmlns:cc="http://creativecommons.org/ns#"
   xmlns:rdf="http://www.w3.org/1999/02/22-rdf-syntax-ns#"
   xmlns:svg="http://www.w3.org/2000/svg"
   xmlns="http://www.w3.org/2000/svg"
   xmlns:xlink="http://www.w3.org/1999/xlink"
   xmlns:sodipodi="http://sodipodi.sourceforge.net/DTD/sodipodi-0.dtd"
   xmlns:inkscape="http://www.inkscape.org/namespaces/inkscape"
   width="64"
   height="64"
   id="svg5181"
   version="1.1"
   inkscape:version="0.92.3 (2405546, 2018-03-11)"
   sodipodi:docname="preferences.svg">
  <defs
     id="defs5183">
    <linearGradient
       id="linearGradient4077">
      <stop
         style="stop-color:#6b747e;stop-opacity:1"
         offset="0"
         id="stop4079" />
      <stop
         style="stop-color:#37393a;stop-opacity:1"
         offset="1"
         id="stop4081" />
    </linearGradient>
    <linearGradient
       id="linearGradient4071">
      <stop
         style="stop-color:#6b747e;stop-opacity:1"
         offset="0"
         id="stop4073" />
      <stop
         style="stop-color:#484b51;stop-opacity:1"
         offset="1"
         id="stop4075" />
    </linearGradient>
    <linearGradient
       id="linearGradient4065">
      <stop
         id="stop4067"
         offset="0"
         style="stop-color:#c0daf9;stop-opacity:1" />
      <stop
         id="stop4069"
         offset="1"
         style="stop-color:#6b747e;stop-opacity:1" />
    </linearGradient>
    <linearGradient
       inkscape:collect="always"
       xlink:href="#linearGradient4065"
       id="linearGradient4057"
       gradientUnits="userSpaceOnUse"
       x1="137.5838"
       y1="9.1853294"
       x2="180.41223"
       y2="56.662498"
       gradientTransform="matrix(1.282432,0,0,1.282432,-173.14236,-26.013167)" />
    <linearGradient
       inkscape:collect="always"
       xlink:href="#linearGradient4077"
       id="linearGradient4060"
       gradientUnits="userSpaceOnUse"
       x1="141.27576"
       y1="13.062793"
       x2="180.00351"
       y2="49.511459"
       gradientTransform="matrix(1.282432,0,0,1.282432,-172.49465,-24.652942)" />
    <linearGradient
       inkscape:collect="always"
       xlink:href="#linearGradient4071"
       id="linearGradient4063"
       gradientUnits="userSpaceOnUse"
       x1="139.27118"
       y1="-7.3311076"
       x2="181.95091"
       y2="39.640987"
       gradientTransform="matrix(1.282432,0,0,1.282432,-172.49465,-4.1340294)" />
  </defs>
  <sodipodi:namedview
     id="base"
     pagecolor="#ffffff"
     bordercolor="#666666"
     borderopacity="1.0"
     inkscape:pageopacity="0.0"
     inkscape:pageshadow="2"
     inkscape:zoom="4.6403882"
     inkscape:cx="1.6614592"
     inkscape:cy="29.048734"
     inkscape:current-layer="layer1"
     showgrid="true"
     inkscape:grid-bbox="true"
     inkscape:document-units="px"
     inkscape:window-width="1360"
     inkscape:window-height="681"
     inkscape:window-x="0"
     inkscape:window-y="0"
     inkscape:window-maximized="1"
     inkscape:pagecheckerboard="true"
     inkscape:showpageshadow="false" />
  <metadata
     id="metadata5186">
    <rdf:RDF>
      <cc:Work
         rdf:about="">
        <dc:format>image/svg+xml</dc:format>
        <dc:type
           rdf:resource="http://purl.org/dc/dcmitype/StillImage" />
        <dc:title></dc:title>
      </cc:Work>
    </rdf:RDF>
  </metadata>
  <g
     id="layer1"
     inkscape:label="Layer 1"
     inkscape:groupmode="layer"
     transform="translate(0,16)">
    <path
       id="path3910"
       style="fill:url(#linearGradient4063);fill-opacity:1;stroke:#000000;stroke-width:0.5;stroke-linecap:butt;stroke-linejoin:round;stroke-miterlimit:4;stroke-dasharray:none;stroke-opacity:1"
       d="m 30.373117,3.272815 c -7.440761,0 -13.472692,5.7999346 -13.472692,12.954517 0,7.154584 6.031931,12.95452 13.472692,12.95452 7.440773,0 13.472704,-5.799936 13.472704,-12.95452 0,-7.1545824 -6.031931,-12.954517 -13.472704,-12.954517 z M 8.2856749,-0.16013301 10.481763,-1.010034 l 4.247825,0.73607361 1.778951,-2.69036541 -1.939922,-5.5514724 2.845396,-2.3801948 5.507007,-0.04973 2.886305,3.730655 1.651042,-1.4950464 0.582942,-5.8295346 h 7.707942 l 1.003978,6.4772602 1.295448,0.9715884 1.846023,-4.8255586 4.315168,-0.422996 4.481443,1.818862 -1.023893,6.7978682 1.943166,2.1374961 2.526135,-1.6193154 3.894034,0.099027 2.971863,5.4714156 -3.886359,4.3397634 0.129551,4.2102201 6.248253,1.783547 -0.01154,6.133077 -6.733102,2.481678 0.04258,3.13917 4.003445,5.365012 -3.147037,5.022178 -7.204113,-1.189481 -1.554551,2.137495 2.007955,5.829534 -4.537334,3.303403 -3.56384,-0.220358 L 37.828091,39.71756 35.61932,40.711376 35.101141,46.8 l -5.894314,-0.518181 -3.756808,-5.894306 -3.368179,2.720448 -4.598853,-0.453407 -3.933783,-3.460703 2.061048,-4.44271 -1.694644,-1.648842 -5.8625484,-0.0916 5.7709444,-9.480837 0.183208,-16.4884106 z"
       inkscape:connector-curvature="0"
       sodipodi:nodetypes="ssssscccccccccccccccccccccccccccccccccccccccccccccccc" />
    <path
       style="fill:url(#linearGradient4060);fill-opacity:1;stroke:#000000;stroke-width:0.5;stroke-linecap:butt;stroke-linejoin:round;stroke-miterlimit:4;stroke-dasharray:none;stroke-opacity:1"
       d="m 36.955802,6.8445138 c 0,0 -11.251507,-1.1795438 -11.375852,8.9627512 -0.124396,10.142295 11.543337,10.038963 11.543337,10.038963 L 22.455151,31.548913 15.053453,16.264949 20.969376,0.90409562 Z"
       id="path4003"
       inkscape:connector-curvature="0"
       sodipodi:nodetypes="czccccc" />
    <path
       id="path3872"
       style="fill:url(#linearGradient4057);fill-opacity:1;stroke:#000000;stroke-width:0.5;stroke-linecap:butt;stroke-linejoin:round;stroke-miterlimit:4;stroke-dasharray:none;stroke-opacity:1"
       d="m 36.915161,15.903472 c 0,4.5114 -2.531456,9.197707 -7.513628,9.327252 -4.982171,0.129546 -8.226108,-4.556761 -8.161333,-9.52157 0.06476,-4.964808 3.826893,-8.5499827 8.485199,-8.5499827 4.658306,0 7.189762,4.2328997 7.189762,8.7443007 z M 17.548168,-10.718066 13.661809,-7.6089817 15.475438,-2.4271741 13.517895,0.31685077 8.1214595,-0.15552921 6.0186429,4.0500855 9.3868095,7.6773508 8.5114214,11.715479 3.6868222,12.859158 3.4277325,18.300057 8.479989,20.11369 l 1.165923,4.534082 -4.0159229,2.720448 2.202282,5.829534 4.7931789,-1.813632 2.849988,2.849993 -2.072718,5.311354 4.274974,3.238629 3.75682,-3.886355 3.886346,1.165907 0.388641,5.764761 5.7,0.744884 1.16591,-5.86192 4.145449,-0.77727 4.145436,4.404535 4.404538,-2.590903 -1.684089,-6.088624 2.53792,-3.231447 6.271156,1.935995 2.882382,-4.890331 -4.598853,-4.987491 0.550561,-4.113059 6.758147,-2.098432 -0.08656,-5.350417 -6.591326,-2.0659 -0.03411,-4.1435016 4.016924,-4.7986834 -2.979551,-5.151723 -5.22895,3.01097207 -3.10909,-2.59090377 1.036359,-7.2545323 -5.181807,-1.813632 -2.690363,4.9907448 -4.276334,-1.1751129 -0.531196,-6.2076149 -5.898918,-0.137403 -0.854497,6.6355413 -4.273654,0.9461078 z"
       inkscape:connector-curvature="0"
       sodipodi:nodetypes="zzzzzccccccccccccccccccccccccccccccccccccccccccccccccc" />
    <path
       sodipodi:nodetypes="cc"
       inkscape:connector-curvature="0"
       d="m 61.535842,12.880746 -3.634348,0.04318"
       style="fill:none;stroke:#000000;stroke-width:0.5;stroke-linecap:butt;stroke-linejoin:round;stroke-miterlimit:4;stroke-dasharray:none;stroke-opacity:1"
       id="path3955" />
    <path
       id="path3975"
       style="fill:none;stroke:#000000;stroke-width:0.5;stroke-linecap:butt;stroke-linejoin:round;stroke-miterlimit:4;stroke-dasharray:none;stroke-opacity:1"
       d="m 61.627446,18.560088 -3.639388,-0.28574"
       inkscape:connector-curvature="0"
       sodipodi:nodetypes="cc" />
    <path
       sodipodi:nodetypes="cc"
       inkscape:connector-curvature="0"
       d="M 54.711483,21.46846 51.104297,20.919847"
       style="fill:none;stroke:#000000;stroke-width:0.5;stroke-linecap:butt;stroke-linejoin:round;stroke-miterlimit:4;stroke-dasharray:none;stroke-opacity:1"
       id="path3977" />
    <path
       id="path3979"
       style="fill:none;stroke:#000000;stroke-width:0.5;stroke-linecap:butt;stroke-linejoin:round;stroke-miterlimit:4;stroke-dasharray:none;stroke-opacity:1"
       d="M 54.665675,24.422633 50.875293,23.713716"
       inkscape:connector-curvature="0"
       sodipodi:nodetypes="cc" />
    <path
       sodipodi:nodetypes="cc"
       inkscape:connector-curvature="0"
       d="M 58.792387,30.065938 55.272201,29.438859"
       style="fill:none;stroke:#000000;stroke-width:0.5;stroke-linecap:butt;stroke-linejoin:round;stroke-miterlimit:4;stroke-dasharray:none;stroke-opacity:1"
       id="path3981" />
    <path
       id="path3983"
       style="fill:none;stroke:#000000;stroke-width:0.5;stroke-linecap:butt;stroke-linejoin:round;stroke-miterlimit:4;stroke-dasharray:none;stroke-opacity:1"
       d="M 55.672358,34.815842 52.569937,34.064774"
       inkscape:connector-curvature="0"
       sodipodi:nodetypes="cc" />
    <path
       sodipodi:nodetypes="cc"
       inkscape:connector-curvature="0"
       d="M 46.928057,35.916976 43.825636,35.165908"
       style="fill:none;stroke:#000000;stroke-width:0.5;stroke-linecap:butt;stroke-linejoin:round;stroke-miterlimit:4;stroke-dasharray:none;stroke-opacity:1"
       id="path3985" />
    <path
       id="path3987"
       style="fill:none;stroke:#000000;stroke-width:0.5;stroke-linecap:butt;stroke-linejoin:round;stroke-miterlimit:4;stroke-dasharray:none;stroke-opacity:1"
       d="M 48.894808,41.696106 45.380174,41.448851"
       inkscape:connector-curvature="0"
       sodipodi:nodetypes="cc" />
    <path
       sodipodi:nodetypes="cc"
       inkscape:connector-curvature="0"
       d="M 35.550307,41.132124 32.81429,40.93067"
       style="fill:none;stroke:#000000;stroke-width:0.5;stroke-linecap:butt;stroke-linejoin:round;stroke-miterlimit:4;stroke-dasharray:none;stroke-opacity:1"
       id="path3989" />
    <path
       id="path3991"
       style="fill:none;stroke:#000000;stroke-width:0.5;stroke-linecap:butt;stroke-linejoin:round;stroke-miterlimit:4;stroke-dasharray:none;stroke-opacity:1"
       d="m 55.245808,10.915979 -3.93564,-0.05795"
       inkscape:connector-curvature="0"
       sodipodi:nodetypes="cc" />
    <path
       sodipodi:nodetypes="cc"
       inkscape:connector-curvature="0"
       d="M 55.157372,6.6403506 51.276053,6.714529"
       style="fill:none;stroke:#000000;stroke-width:0.5;stroke-linecap:butt;stroke-linejoin:round;stroke-miterlimit:4;stroke-dasharray:none;stroke-opacity:1"
       id="path3993" />
    <path
       id="path3995"
       style="fill:none;stroke:#000000;stroke-width:0.5;stroke-linecap:butt;stroke-linejoin:round;stroke-miterlimit:4;stroke-dasharray:none;stroke-opacity:1"
       d="M 58.90374,2.3117007 55.433967,2.0149941"
       inkscape:connector-curvature="0"
       sodipodi:nodetypes="cc" />
    <path
       sodipodi:nodetypes="cc"
       inkscape:connector-curvature="0"
       d="m 47.696734,-3.5675633 -3.652982,0.5048134"
       style="fill:none;stroke:#000000;stroke-width:0.5;stroke-linecap:butt;stroke-linejoin:round;stroke-miterlimit:4;stroke-dasharray:none;stroke-opacity:1"
       id="path3997" />
    <path
       id="path3999"
       style="fill:none;stroke:#000000;stroke-width:0.5;stroke-linecap:butt;stroke-linejoin:round;stroke-miterlimit:4;stroke-dasharray:none;stroke-opacity:1"
       d="m 48.494317,-10.368686 -3.538474,0.36741"
       inkscape:connector-curvature="0"
       sodipodi:nodetypes="cc" />
    <path
       sodipodi:nodetypes="cc"
       inkscape:connector-curvature="0"
       d="m 36.760333,-7.9436428 -3.36151,-0.038569"
       style="fill:none;stroke:#000000;stroke-width:0.5;stroke-linecap:butt;stroke-linejoin:round;stroke-miterlimit:4;stroke-dasharray:none;stroke-opacity:1"
       id="path4001" />
  </g>
</svg>
