<?xml version="1.0" encoding="UTF-8" standalone="no"?>
<!-- Created with Inkscape (http://www.inkscape.org/) -->

<svg
   xmlns:dc="http://purl.org/dc/elements/1.1/"
   xmlns:cc="http://creativecommons.org/ns#"
   xmlns:rdf="http://www.w3.org/1999/02/22-rdf-syntax-ns#"
   xmlns:svg="http://www.w3.org/2000/svg"
   xmlns="http://www.w3.org/2000/svg"
   xmlns:sodipodi="http://sodipodi.sourceforge.net/DTD/sodipodi-0.dtd"
   xmlns:inkscape="http://www.inkscape.org/namespaces/inkscape"
   width="64"
   height="64"
   id="svg5181"
   version="1.1"
   inkscape:version="0.92.4 (5da689c313, 2019-01-14)"
   sodipodi:docname="sketchChain.svg">
  <defs
     id="defs5183" />
  <sodipodi:namedview
     id="base"
     pagecolor="#ffffff"
     bordercolor="#666666"
     borderopacity="1.0"
     inkscape:pageopacity="0.0"
     inkscape:pageshadow="2"
     inkscape:zoom="9.32"
     inkscape:cx="46.529898"
     inkscape:cy="28.253494"
     inkscape:current-layer="g897"
     showgrid="true"
     inkscape:grid-bbox="true"
     inkscape:document-units="px"
     inkscape:window-width="1920"
     inkscape:window-height="985"
     inkscape:window-x="0"
     inkscape:window-y="0"
     inkscape:window-maximized="1"
     inkscape:pagecheckerboard="true"
     inkscape:showpageshadow="false" />
  <metadata
     id="metadata5186">
    <rdf:RDF>
      <cc:Work
         rdf:about="">
        <dc:format>image/svg+xml</dc:format>
        <dc:type
           rdf:resource="http://purl.org/dc/dcmitype/StillImage" />
        <dc:title></dc:title>
      </cc:Work>
    </rdf:RDF>
  </metadata>
  <g
     id="layer1"
     inkscape:label="Layer 1"
     inkscape:groupmode="layer"
     transform="translate(0,16)"
     style="display:inline">
    <path
       sodipodi:nodetypes="zzzszsszz"
       inkscape:connector-curvature="0"
       id="path899"
       d="m 9.5159361,17.446283 c -2.9821088,-0.390454 -5.18217,1.915539 -5.525859,4.443681 -0.3436924,2.52814 1.953514,6.597667 1.8724823,8.868689 -0.081028,2.271023 -1.6876886,5.381652 -2.2813065,8.179883 -0.584461,2.755064 1.1702056,5.819929 4.348808,6.080275 3.1786021,0.260343 5.5748051,-1.949868 5.5276521,-5.115198 -0.04417,-2.965324 -1.762715,-6.783385 -1.655675,-8.934906 0.102702,-2.064505 1.443213,-4.611178 2.07293,-7.500839 0.629717,-2.889661 -1.376921,-5.631131 -4.3590288,-6.021582 z"
       style="display:inline;fill:#c1c1c1;fill-opacity:1;stroke:#000000;stroke-width:1.14950001px;stroke-linecap:butt;stroke-linejoin:miter;stroke-opacity:1" />
    <path
       style="display:inline;fill:#c1c1c1;fill-opacity:1;stroke:#000000;stroke-width:1.14950001px;stroke-linecap:butt;stroke-linejoin:miter;stroke-opacity:1"
       d="m 27.365253,-12.065957 c -2.052224,-2.198591 -5.216721,-1.819342 -7.090399,-0.08759 -1.873679,1.731746 -2.690652,6.3329155 -4.198101,8.0334166 -1.50745,1.7005012 -4.726094,3.0780696 -6.9644314,4.85917057 C 6.9085136,2.4926618 6.3121944,5.9735613 8.5987906,8.1967943 10.885388,10.420027 14.140265,10.239465 16.117823,7.7674618 c 1.852603,-2.3158057 2.956014,-6.3547971 4.407495,-7.94655763 1.392778,-1.52738357 4.047272,-2.63920747 6.371631,-4.46787807 2.32436,-1.8286706 2.520528,-5.2203914 0.468304,-7.4189811 z"
       id="path881"
       inkscape:connector-curvature="0"
       sodipodi:nodetypes="zzzszsszz" />
    <path
       sodipodi:nodetypes="zzzszsszz"
       inkscape:connector-curvature="0"
       id="path868"
       d="m 38.393339,-12.811104 c -2.518984,1.643212 -2.690022,4.8257613 -1.306587,6.9695247 1.383437,2.1437646 5.775345,3.7404344 7.19103,5.51805668 1.415686,1.77762232 2.218752,5.18532582 3.588044,7.69680182 1.348172,2.4727319 4.674501,3.6592368 7.258096,1.7893909 2.583596,-1.8698457 2.965911,-5.1072308 0.871144,-7.4807269 -1.962408,-2.22352293 -5.751229,-4.0056029 -7.069429,-5.7093775 -1.264888,-1.634867 -1.903267,-4.4411022 -3.304615,-7.0455057 -1.40135,-2.604401 -4.7087,-3.381377 -7.227683,-1.738164 z"
       style="display:inline;fill:#c1c1c1;fill-opacity:1;stroke:#000000;stroke-width:1.14950001px;stroke-linecap:butt;stroke-linejoin:miter;stroke-opacity:1" />
    <g
       id="g879"
       transform="matrix(0.75623529,0.86571268,-0.86571268,0.75623529,67.581843,-14.256531)">
      <path
         sodipodi:nodetypes="zzzszsszz"
         inkscape:connector-curvature="0"
         id="path870"
         d="m -8.2353957,17.345517 c -1.7853193,-1.912649 -4.5382523,-1.582725 -6.1682463,-0.0762 -1.629995,1.506522 -2.340715,5.509278 -3.652111,6.988618 -1.311396,1.47934 -4.111434,2.677747 -6.058661,4.227204 -1.917188,1.525555 -2.435952,4.55374 -0.446743,6.487827 1.98921,1.934087 4.820769,1.777008 6.541133,-0.373495 1.61166,-2.014619 2.571565,-5.528314 3.834272,-6.913056 1.211638,-1.328737 3.520897,-2.295961 5.5429593,-3.886801 2.022061,-1.59084 2.192716,-4.541445 0.407397,-6.454094 z"
         style="display:inline;fill:#c1c1c1;fill-opacity:1;stroke:#000000;stroke-width:1px;stroke-linecap:butt;stroke-linejoin:miter;stroke-opacity:1" />
      <circle
         r="2.0484855"
         cy="20.497189"
         cx="-11.418408"
         id="path872"
         style="opacity:1;fill:#030303;fill-opacity:1;stroke:none;stroke-width:0.1;stroke-miterlimit:4;stroke-dasharray:none;stroke-opacity:1" />
      <circle
         style="opacity:1;fill:#030303;fill-opacity:1;stroke:none;stroke-width:0.1;stroke-miterlimit:4;stroke-dasharray:none;stroke-opacity:1"
         id="circle874"
         cx="-21.236006"
         cy="31.763283"
         r="2.0484855" />
    </g>
    <g
       transform="matrix(-0.9770616,0.60555835,-0.60555835,-0.9770616,10.502814,48.664933)"
       id="g889">
      <path
         style="display:inline;fill:#c1c1c1;fill-opacity:1;stroke:#000000;stroke-width:1px;stroke-linecap:butt;stroke-linejoin:miter;stroke-opacity:1"
         d="m -8.2353957,17.345517 c -1.7853193,-1.912649 -4.5382523,-1.582725 -6.1682463,-0.0762 -1.629995,1.506522 -2.340715,5.509278 -3.652111,6.988618 -1.311396,1.47934 -4.111434,2.677747 -6.058661,4.227204 -1.917188,1.525555 -2.435952,4.55374 -0.446743,6.487827 1.98921,1.934087 4.820769,1.777008 6.541133,-0.373495 1.61166,-2.014619 2.571565,-5.528314 3.834272,-6.913056 1.211638,-1.328737 3.520897,-2.295961 5.5429593,-3.886801 2.022061,-1.59084 2.192716,-4.541445 0.407397,-6.454094 z"
         id="path883"
         inkscape:connector-curvature="0"
         sodipodi:nodetypes="zzzszsszz" />
      <circle
         style="opacity:1;fill:#030303;fill-opacity:1;stroke:none;stroke-width:0.1;stroke-miterlimit:4;stroke-dasharray:none;stroke-opacity:1"
         id="circle885"
         cx="-11.418408"
         cy="20.497189"
         r="2.0484855" />
      <circle
         r="2.0484855"
         cy="31.763283"
         cx="-21.236006"
         id="circle887"
         style="opacity:1;fill:#030303;fill-opacity:1;stroke:none;stroke-width:0.1;stroke-miterlimit:4;stroke-dasharray:none;stroke-opacity:1" />
    </g>
    <path
       style="display:inline;fill:#c1c1c1;fill-opacity:1;stroke:#000000;stroke-width:1.14950001px;stroke-linecap:butt;stroke-linejoin:miter;stroke-opacity:1"
       d="m 56.383962,17.816293 c -2.982108,-0.390453 -5.182169,1.915538 -5.525858,4.443682 -0.343692,2.528139 1.953514,6.597665 1.872481,8.868688 -0.08102,2.271022 -1.687688,5.381653 -2.281305,8.179884 -0.584461,2.755062 1.170204,5.819929 4.348807,6.080272 3.178602,0.260346 5.574805,-1.949866 5.527651,-5.115196 -0.04418,-2.965323 -1.762713,-6.783384 -1.655675,-8.934906 0.102703,-2.064504 1.443213,-4.611178 2.072931,-7.500839 0.629716,-2.88966 -1.376922,-5.63113 -4.35903,-6.021582 z"
       id="path901"
       inkscape:connector-curvature="0"
       sodipodi:nodetypes="zzzszsszz" />
    <g
       id="g897"
       transform="rotate(127.60253,20.291261,39.47376)">
      <path
         sodipodi:nodetypes="zzzszsszz"
         inkscape:connector-curvature="0"
         id="path891"
         d="m -11.244028,18.172472 c -2.052225,-2.198589 -5.216721,-1.819343 -7.090399,-0.08759 -1.873679,1.731747 -2.690652,6.332914 -4.198102,8.033416 -1.50745,1.700501 -4.726093,3.078071 -6.964431,4.859171 -2.203806,1.753625 -2.800126,5.234525 -0.51353,7.457757 2.286597,2.223234 5.541473,2.042671 7.519031,-0.429332 1.852604,-2.315804 2.956015,-6.354798 4.407497,-7.946558 1.392777,-1.527382 4.047271,-2.639207 6.371633,-4.467877 2.3243581,-1.828672 2.5205255,-5.220391 0.468301,-7.418982 z"
         style="display:inline;fill:#c1c1c1;fill-opacity:1;stroke:#000000;stroke-width:1.14950001px;stroke-linecap:butt;stroke-linejoin:miter;stroke-opacity:1" />
      <circle
         r="2.3547342"
         cy="21.795317"
         cx="-14.902903"
         id="circle893"
         style="opacity:1;fill:#030303;fill-opacity:1;stroke:none;stroke-width:0.11495;stroke-miterlimit:4;stroke-dasharray:none;stroke-opacity:1" />
      <circle
         style="opacity:1;fill:#030303;fill-opacity:1;stroke:none;stroke-width:0.11495;stroke-miterlimit:4;stroke-dasharray:none;stroke-opacity:1"
         id="circle895"
         cx="-26.188229"
         cy="34.745697"
         r="2.3547342" />
      <circle
         style="opacity:1;fill:#030303;fill-opacity:1;stroke:none;stroke-width:0.11495;stroke-miterlimit:4;stroke-dasharray:none;stroke-opacity:1"
         id="circle903"
         cx="-0.40323314"
         cy="11.178451"
         r="2.3547342" />
      <circle
         r="2.3547342"
         cy="48.319859"
         cx="27.981953"
         id="circle905"
         style="opacity:1;fill:#030303;fill-opacity:1;stroke:none;stroke-width:0.11495;stroke-miterlimit:4;stroke-dasharray:none;stroke-opacity:1" />
    </g>
  </g>
</svg>
