<?xml version="1.0" encoding="UTF-8" standalone="no"?>
<!-- Created with Inkscape (http://www.inkscape.org/) -->

<svg
   xmlns:dc="http://purl.org/dc/elements/1.1/"
   xmlns:cc="http://creativecommons.org/ns#"
   xmlns:rdf="http://www.w3.org/1999/02/22-rdf-syntax-ns#"
   xmlns:svg="http://www.w3.org/2000/svg"
   xmlns="http://www.w3.org/2000/svg"
   xmlns:xlink="http://www.w3.org/1999/xlink"
   xmlns:sodipodi="http://sodipodi.sourceforge.net/DTD/sodipodi-0.dtd"
   xmlns:inkscape="http://www.inkscape.org/namespaces/inkscape"
   width="64"
   height="64"
   id="svg5181"
   version="1.1"
   inkscape:version="0.92.3 (2405546, 2018-03-11)"
   sodipodi:docname="sketchDiameter.svg">
  <defs
     id="defs5183">
    <linearGradient
       id="linearGradient849">
      <stop
         style="stop-color:#a7e8ff;stop-opacity:1"
         offset="0"
         id="stop845" />
      <stop
         style="stop-color:#67b1cc;stop-opacity:1"
         offset="1"
         id="stop847" />
    </linearGradient>
    <radialGradient
       inkscape:collect="always"
       xlink:href="#linearGradient849"
       id="radialGradient899"
       gradientUnits="userSpaceOnUse"
       gradientTransform="translate(-0.26596573,-1.8273031)"
       cx="32.188843"
       cy="17.742489"
       fx="32.188843"
       fy="17.742489"
       r="11.729613" />
  </defs>
  <sodipodi:namedview
     id="base"
     pagecolor="#ffffff"
     bordercolor="#666666"
     borderopacity="1.0"
     inkscape:pageopacity="0.0"
     inkscape:pageshadow="2"
     inkscape:zoom="7.18"
     inkscape:cx="21.294396"
     inkscape:cy="24.853436"
     inkscape:current-layer="layer1"
     showgrid="true"
     inkscape:grid-bbox="true"
     inkscape:document-units="px"
     inkscape:window-width="1360"
     inkscape:window-height="683"
     inkscape:window-x="0"
     inkscape:window-y="0"
     inkscape:window-maximized="1"
     inkscape:pagecheckerboard="true"
     inkscape:showpageshadow="false" />
  <metadata
     id="metadata5186">
    <rdf:RDF>
      <cc:Work
         rdf:about="">
        <dc:format>image/svg+xml</dc:format>
        <dc:type
           rdf:resource="http://purl.org/dc/dcmitype/StillImage" />
        <dc:title />
      </cc:Work>
    </rdf:RDF>
  </metadata>
  <g
     id="layer1"
     inkscape:label="Layer 1"
     inkscape:groupmode="layer"
     transform="translate(0,16)"
     style="display:inline">
    <circle
       style="display:inline;opacity:1;fill:url(#radialGradient899);fill-opacity:1;stroke:#000000;stroke-width:1;stroke-linecap:round;stroke-linejoin:round;stroke-miterlimit:4;stroke-dasharray:none;stroke-dashoffset:0;stroke-opacity:1"
       id="circle897"
       cx="31.922878"
       cy="15.915184"
       r="5.1502132" />
    <path
       inkscape:connector-curvature="0"
       style="display:inline;opacity:1;fill:#ad151f;fill-opacity:1;stroke:#000000;stroke-width:1;stroke-linecap:round;stroke-linejoin:round;stroke-miterlimit:4;stroke-dasharray:none;stroke-dashoffset:0;stroke-opacity:1"
       d="m 32.06944,-14.56944 a 30.49967,30.49967 0 0 0 -30.4999997,30.5 30.49967,30.49967 0 0 0 30.4999997,30.5 30.49967,30.49967 0 0 0 30.5,-30.5 30.49967,30.49967 0 0 0 -30.5,-30.5 z m 0,3.220703 A 27.280787,27.280787 0 0 1 59.35069,15.93056 27.280787,27.280787 0 0 1 32.06944,43.21181 27.280787,27.280787 0 0 1 4.7881903,15.93056 27.280787,27.280787 0 0 1 32.06944,-11.348737 Z"
       id="path935" />
    <path
       style="fill:none;stroke:#009100;stroke-width:1px;stroke-linecap:butt;stroke-linejoin:miter;stroke-opacity:1"
       d="M 9.6422525,34.340362 20.860646,45.373324"
       id="path880"
       inkscape:connector-curvature="0"
       sodipodi:nodetypes="cc" />
    <path
       inkscape:connector-curvature="0"
       id="path882"
       d="m 52.865601,-3.9702729 8.718966,9.745415"
       style="fill:none;stroke:#009100;stroke-width:1px;stroke-linecap:butt;stroke-linejoin:miter;stroke-opacity:1"
       sodipodi:nodetypes="cc" />
    <g
       aria-label="xx.xx"
       transform="rotate(-44.039707,25.854692,-186.57757)"
       style="font-style:normal;font-weight:normal;font-size:40px;line-height:1.25;font-family:sans-serif;letter-spacing:0px;word-spacing:0px;fill:#009100;fill-opacity:1;stroke:none"
       id="flowRoot884">
      <path
         d="m -118.75326,-30.679037 -2.10937,2.838542 2.21875,2.994792 h -1.13021 l -1.69792,-2.291667 -1.69791,2.291667 h -1.13021 l 2.26562,-3.052084 -2.07291,-2.78125 h 1.13021 l 1.54687,2.078125 1.54688,-2.078125 z"
         style="font-size:10.66666698px;fill:#009100"
         id="path826" />
      <path
         d="m -112.44076,-30.679037 -2.10937,2.838542 2.21875,2.994792 h -1.13021 l -1.69792,-2.291667 -1.69791,2.291667 h -1.13021 l 2.26562,-3.052084 -2.07291,-2.78125 h 1.13021 l 1.54687,2.078125 1.54688,-2.078125 z"
         style="font-size:10.66666698px;fill:#009100"
         id="path828" />
      <path
         d="m -110.8418,-26.16862 h 1.09896 v 1.322917 h -1.09896 z"
         style="font-size:10.66666698px;fill:#009100"
         id="path830" />
      <path
         d="m -102.73242,-30.679037 -2.10938,2.838542 2.21875,2.994792 h -1.1302 l -1.69792,-2.291667 -1.69792,2.291667 h -1.13021 l 2.26563,-3.052084 -2.07292,-2.78125 h 1.13021 l 1.54688,2.078125 1.54687,-2.078125 z"
         style="font-size:10.66666698px;fill:#009100"
         id="path832" />
      <path
         d="m -96.419921,-30.679037 -2.109375,2.838542 2.21875,2.994792 h -1.130208 l -1.697917,-2.291667 -1.697919,2.291667 h -1.13021 l 2.265629,-3.052084 -2.072919,-2.78125 h 1.13021 l 1.546876,2.078125 1.546875,-2.078125 z"
         style="font-size:10.66666698px;fill:#009100"
         id="path834" />
    </g>
    <path
       style="fill:none;stroke:#009100;stroke-width:1px;stroke-linecap:butt;stroke-linejoin:miter;stroke-opacity:1"
       d="m 27.209991,32.652599 -6.73264,6.519532"
       id="path892"
       inkscape:connector-curvature="0"
       sodipodi:nodetypes="cc" />
    <path
       sodipodi:nodetypes="cc"
       inkscape:connector-curvature="0"
       id="path894"
       d="m 56.014678,4.6253014 -6.73264,6.5195316"
       style="fill:none;stroke:#009100;stroke-width:1px;stroke-linecap:butt;stroke-linejoin:miter;stroke-opacity:1" />
  </g>
</svg>
