<?xml version="1.0" encoding="UTF-8" standalone="no"?>
<!-- Created with Inkscape (http://www.inkscape.org/) -->

<svg
   xmlns:dc="http://purl.org/dc/elements/1.1/"
   xmlns:cc="http://creativecommons.org/ns#"
   xmlns:rdf="http://www.w3.org/1999/02/22-rdf-syntax-ns#"
   xmlns:svg="http://www.w3.org/2000/svg"
   xmlns="http://www.w3.org/2000/svg"
   xmlns:sodipodi="http://sodipodi.sourceforge.net/DTD/sodipodi-0.dtd"
   xmlns:inkscape="http://www.inkscape.org/namespaces/inkscape"
   width="64"
   height="64"
   id="svg5181"
   version="1.1"
   inkscape:version="0.92.3 (2405546, 2018-03-11)"
   sodipodi:docname="sketchDragged.svg">
  <defs
     id="defs5183" />
  <sodipodi:namedview
     id="base"
     pagecolor="#ffffff"
     bordercolor="#666666"
     borderopacity="1.0"
     inkscape:pageopacity="0.0"
     inkscape:pageshadow="2"
     inkscape:zoom="2.0649525"
     inkscape:cx="-57.295992"
     inkscape:cy="48.627765"
     inkscape:current-layer="layer1"
     showgrid="true"
     inkscape:grid-bbox="true"
     inkscape:document-units="px"
     inkscape:window-width="1360"
     inkscape:window-height="683"
     inkscape:window-x="0"
     inkscape:window-y="0"
     inkscape:window-maximized="1"
     inkscape:pagecheckerboard="true"
     inkscape:showpageshadow="false" />
  <metadata
     id="metadata5186">
    <rdf:RDF>
      <cc:Work
         rdf:about="">
        <dc:format>image/svg+xml</dc:format>
        <dc:type
           rdf:resource="http://purl.org/dc/dcmitype/StillImage" />
        <dc:title></dc:title>
      </cc:Work>
    </rdf:RDF>
  </metadata>
  <g
     id="layer1"
     inkscape:label="Layer 1"
     inkscape:groupmode="layer"
     transform="translate(0,16)"
     style="display:inline">
    <path
       id="path852"
       style="fill:#ff9900;stroke:#000000;stroke-width:1;stroke-linecap:butt;stroke-linejoin:miter;stroke-miterlimit:4;stroke-dasharray:none;stroke-opacity:1"
       d="M 24.292151,45.739664 V 31.407059 c 0,-6.286708 -16.7069065,-16.366464 -16.7069065,-16.366464 -4.5530429,-4.624475 1.8872471,-7.9002421 6.4034875,-5.0508792 2.332472,1.4715902 5.763914,5.6139992 6.403487,5.2392152 0.792038,-0.464126 0.128412,-25.0489329 0.128412,-25.0489329 0.216185,-6.2410811 6.086736,-6.2035601 6.086736,0 V 6.9420667 c 0,3.9112793 2.724208,4.0017483 2.724208,0 l 0,-6.65858505 c 0,-4.26628725 5.927909,-4.39627085 5.927909,0 l 0,6.65858525 c 0,3.8473231 2.17731,3.9101851 2.17731,0 l 0,-4.3185598 c 0,-5.5359915 5.179291,-5.7131476 5.179291,0 l 0,4.9777421 c 0,3.4958038 2.118801,3.4557168 2.118801,0 l 0,-3.6593772 c 0,-4.12536335 4.567194,-4.11798415 4.567194,0 l 0,5.0719117 c 0,3.0858873 2.014563,3.0002793 2.014563,0 l 0,-3.6923839 c 0,-3.8630373 3.689414,-3.5942931 3.689414,0 0,0 0.05185,11.6136482 -1.22285,15.1773842 -1.274694,3.563736 -7.144991,6.109779 -7.708552,12.228446 l 0.684865,12.841218 z"
       inkscape:connector-curvature="0"
       sodipodi:nodetypes="cscsscssssssssssssssssszscc" />
  </g>
</svg>
