<?xml version="1.0" encoding="UTF-8" standalone="no"?>
<!-- Created with Inkscape (http://www.inkscape.org/) -->

<svg
   xmlns:dc="http://purl.org/dc/elements/1.1/"
   xmlns:cc="http://creativecommons.org/ns#"
   xmlns:rdf="http://www.w3.org/1999/02/22-rdf-syntax-ns#"
   xmlns:svg="http://www.w3.org/2000/svg"
   xmlns="http://www.w3.org/2000/svg"
   xmlns:sodipodi="http://sodipodi.sourceforge.net/DTD/sodipodi-0.dtd"
   xmlns:inkscape="http://www.inkscape.org/namespaces/inkscape"
   width="64"
   height="64"
   id="svg5181"
   version="1.1"
   inkscape:version="0.92.3 (2405546, 2018-03-11)"
   sodipodi:docname="viewBase.svg">
  <defs
     id="defs5183" />
  <sodipodi:namedview
     id="base"
     pagecolor="#ffffff"
     bordercolor="#666666"
     borderopacity="1.0"
     inkscape:pageopacity="0.0"
     inkscape:pageshadow="2"
     inkscape:zoom="4.6403882"
     inkscape:cx="6.5983157"
     inkscape:cy="37.402054"
     inkscape:current-layer="layer1"
     showgrid="true"
     inkscape:grid-bbox="true"
     inkscape:document-units="px"
     inkscape:window-width="1360"
     inkscape:window-height="681"
     inkscape:window-x="0"
     inkscape:window-y="0"
     inkscape:window-maximized="1"
     inkscape:pagecheckerboard="true"
     inkscape:showpageshadow="false" />
  <metadata
     id="metadata5186">
    <rdf:RDF>
      <cc:Work
         rdf:about="">
        <dc:format>image/svg+xml</dc:format>
        <dc:type
           rdf:resource="http://purl.org/dc/dcmitype/StillImage" />
        <dc:title></dc:title>
      </cc:Work>
    </rdf:RDF>
  </metadata>
  <g
     id="layer1"
     inkscape:label="Layer 1"
     inkscape:groupmode="layer"
     transform="translate(0,16)">
    <ellipse
       style="fill:#ffffff;fill-opacity:1;stroke:none;stroke-width:0.97675115"
       id="path3940"
       cx="32"
       cy="16.000002"
       rx="30.521975"
       ry="17.07118" />
    <ellipse
       style="fill:#3d50f3;fill-opacity:1;stroke:none;stroke-width:1.05585587"
       id="path4450"
       cx="32"
       cy="16"
       rx="14.756823"
       ry="14.33215" />
    <circle
       style="fill:#000000;fill-opacity:1;stroke:none;stroke-width:1.33715451"
       id="path4455"
       cx="32"
       cy="16"
       r="6.31673" />
    <path
       style="fill:none;stroke:#ff0000;stroke-width:0.52550501;stroke-linecap:butt;stroke-linejoin:miter;stroke-miterlimit:4;stroke-dasharray:none;stroke-opacity:1"
       d="m 46.249469,9.8193047 c 0.473224,-0.1183076 0.321495,-0.00292 0.53084,-0.2123373 0.03539,-0.035387 0.0614,-0.083785 0.106168,-0.1061677 0.03165,-0.015829 0.07452,0.015829 0.106167,0 0.08953,-0.044763 0.122808,-0.1675721 0.212336,-0.2123367 0.312433,-0.1562158 -0.139779,0.2459469 0.212336,-0.1061676 0.08342,-0.08342 0.497029,-0.4632139 0.530841,-0.5308401 0.01583,-0.031655 -0.01582,-0.074516 0,-0.1061677 0.02239,-0.044763 0.08378,-0.0614 0.106168,-0.1061688 0.01583,-0.031655 -0.01582,-0.074517 0,-0.1061679 0.04476,-0.089525 0.167572,-0.1228073 0.212336,-0.2123366 0.03166,-0.063302 -0.03165,-0.149029 0,-0.2123356 0.02239,-0.044762 0.08379,-0.0614 0.106168,-0.1061676 0.01583,-0.031656 -0.03539,-0.106169 0,-0.106169 0.03539,0 -0.03539,0.106169 0,0.106169 0.05006,0 0.0614,-0.083786 0.106168,-0.106169 0.03165,-0.015829 0.07077,0 0.106168,0 0.212336,0 0.424672,0 0.637009,0 0.03539,0 0.08115,-0.025024 0.106167,0 0.02502,0.025024 -0.02502,0.081148 0,0.106169 0.02502,0.025025 0.07452,-0.015829 0.106168,0 0.04476,0.022386 0.06141,0.083785 0.106169,0.1061676 0.03166,0.015829 0.07452,-0.015829 0.106168,0 0.04476,0.022386 0.06139,0.083786 0.106167,0.1061679 0.0633,0.031655 0.14903,-0.031655 0.212337,0 0.04476,0.022387 0.0614,0.083786 0.106167,0.1061677 0.0384,0.019202 0.456996,0 0.530841,0 0.07525,0 0.609559,0.013727 0.637009,0 0.04476,-0.022386 0.0614,-0.083786 0.106168,-0.1061677 0.0633,-0.031655 0.149028,0.031655 0.212334,0 0.04476,-0.022386 0.0614,-0.083786 0.10617,-0.1061679 0.0633,-0.031655 0.14903,0.031655 0.212335,0 0.04477,-0.022386 0.0614,-0.083786 0.106169,-0.1061676 0.03166,-0.015829 0.07452,0.015829 0.106168,0 0.04477,-0.022386 0.0614,-0.083786 0.106168,-0.106169 0.0633,-0.031655 0.14903,0.031655 0.212336,0 0.04477,-0.022376 0.0614,-0.083786 0.106169,-0.1061676 0.03165,-0.015829 0.07452,0.015829 0.106167,0 0.04476,-0.022387 0.0614,-0.083786 0.106167,-0.1061679 0.03165,-0.015829 0.07452,0.015829 0.106168,0 0.04476,-0.022386 0.0614,-0.083786 0.106169,-0.1061676 0.03165,-0.015829 0.07452,0.015829 0.106169,0 0.04477,-0.022386 0.0614,-0.083786 0.106167,-0.106169 0.03165,-0.015829 0.08115,0.025024 0.106168,0 0.02503,-0.025024 -0.02502,-0.081138 0,-0.1061678 0.02503,-0.025024 0.08114,0.025024 0.106169,0 0.02503,-0.025024 -0.01582,-0.074517 0,-0.1061677 0.04476,-0.089525 0.167571,-0.1228075 0.212333,-0.2123367 0.01583,-0.031655 -0.01582,-0.074516 0,-0.1061677 0.02239,-0.044763 0.08378,-0.0614 0.10617,-0.1061678 0.01582,-0.031655 -0.01583,-0.074517 0,-0.1061678 0.04476,-0.089525 0.167572,-0.1228074 0.212337,-0.2123367 0.07077,-0.1415573 -0.106168,-0.1061677 0.106167,-0.1061677"
       id="path4461"
       inkscape:connector-curvature="0" />
    <path
       style="fill:none;stroke:#ff0000;stroke-width:0.52550501;stroke-linecap:butt;stroke-linejoin:miter;stroke-miterlimit:4;stroke-dasharray:none;stroke-opacity:1"
       d="m 47.841988,16.189387 c 0.102216,-0.316532 0.372575,0.07912 0.530841,0 0.04476,-0.02238 0.0614,-0.08378 0.106168,-0.106167 0.0633,-0.03165 0.14903,0.03165 0.212335,0 0.352116,-0.352116 -0.100091,0.05006 0.212337,-0.10617 0.112734,-0.05637 0.09962,-0.155968 0.212336,-0.212337 0.03166,-0.01582 0.07452,0.01583 0.106169,0 0.04476,-0.02238 0.0614,-0.08379 0.106167,-0.106166 0.03165,-0.01583 0.07452,0.01583 0.106168,0 0.04476,-0.02238 0.06141,-0.08379 0.106169,-0.10617 0.03166,-0.01583 0.07452,0.01583 0.106168,0 0.04476,-0.02238 0.06139,-0.08379 0.106167,-0.106167 0.0384,-0.01919 0.456997,0 0.53084,0 0.0478,0 0.286195,-0.01616 0.318505,0 0.04476,0.02238 0.07077,0.07077 0.106167,0.106167 0.141558,0.141559 0.283115,0.283115 0.424673,0.424673 0.03539,0.03539 0.07077,0.07077 0.106169,0.10617 0.03539,0.03539 0.0614,0.08378 0.106168,0.106167 0.03165,0.01582 0.08115,-0.02503 0.106166,0 0.02503,0.02502 -0.02502,0.08114 0,0.106167 0.02503,0.02503 0.07452,-0.01583 0.106168,0 0.352117,0.352116 -0.100091,-0.05006 0.212339,0.106167 0.04476,0.02239 0.0614,0.08379 0.106166,0.106171 0.03165,0.01582 0.07452,-0.01583 0.106169,0 0.04476,0.02238 0.06139,0.08378 0.106168,0.106168 0.08493,0.04247 0.23357,-0.04247 0.318504,0 0.04477,0.02238 0.0614,0.08378 0.106169,0.106166 0.03231,0.01615 0.270689,0 0.318502,0 0.212338,0 0.424673,0 0.637009,0 0.141557,0 0.283115,0 0.424673,0 0.03539,0 0.07077,0 0.106167,0 0.03539,0 0.07452,0.01583 0.106168,0 0.04476,-0.02238 0.0614,-0.08379 0.106168,-0.106166 0.06331,-0.03165 0.149031,0.03165 0.212337,0 0.04475,-0.02238 0.0614,-0.08378 0.106168,-0.106168 0.0633,-0.03165 0.14903,0.03165 0.212335,0 0.04476,-0.02238 0.0614,-0.08378 0.106169,-0.106171 0.03165,-0.01582 0.07452,0.01583 0.106167,0 0.04477,-0.02238 0.0614,-0.08378 0.106169,-0.106167 0.03165,-0.01583 0.07452,0.01582 0.106168,0 0.04476,-0.02238 0.0614,-0.08378 0.106168,-0.106167 0.03165,-0.01583 0.07452,0.01582 0.106167,0 0.04476,-0.02238 0.0614,-0.08378 0.10617,-0.106167 0.0633,-0.03165 0.149029,0.03165 0.212335,0 0.04476,-0.02238 0.0614,-0.08378 0.106168,-0.10617 0.03165,-0.01583 0.07077,0 0.106168,0 0.03539,0 0.07077,0 0.106168,0 0.212337,0 0.424672,0 0.637009,0 0.09999,0 0.470444,-0.02012 0.53084,0 0.04749,0.01582 0.05869,0.09035 0.106167,0.10617 0.04856,0.01619 0.377431,-0.02363 0.424672,0 0.04477,0.02238 0.07077,0.07077 0.106169,0.106167 0.03539,0.03539 0.08378,0.0614 0.106169,0.106167 0.01582,0.03165 -0.01582,0.07452 0,0.106167 0.02239,0.04476 0.08378,0.0614 0.106168,0.106171 0.07322,0.146443 -0.128576,0.09496 0.106167,0.212334 0.03231,0.01615 0.27069,0 0.318503,0"
       id="path4463"
       inkscape:connector-curvature="0" />
    <path
       style="fill:none;stroke:#ff0000;stroke-width:0.52550501;stroke-linecap:butt;stroke-linejoin:miter;stroke-miterlimit:4;stroke-dasharray:none;stroke-opacity:1"
       d="m 45.930964,22.771806 c -0.09548,0.543557 0.389792,0.141811 0.530839,0.212335 0.04476,0.02238 0.0614,0.08378 0.106168,0.106168 0.0633,0.03166 0.14903,-0.03165 0.212338,0 0.04475,0.02239 0.0614,0.08379 0.106168,0.106169 0.0633,0.03165 0.149028,-0.03165 0.212336,0 0.04476,0.02238 0.06139,0.08378 0.106167,0.106168 0.0058,0.0026 0.312951,0.0026 0.318505,0 0.04477,-0.02238 0.0614,-0.08378 0.106168,-0.106168 0.03165,-0.01583 0.07077,0 0.106167,0 0.176948,0 0.353894,0 0.530841,0 0.03539,0 0.07077,0 0.106168,0 0.03539,0 0.07452,-0.01583 0.106168,0 0.04476,0.02238 0.06139,0.08378 0.106168,0.106168 0.06264,0.03132 0.245479,-0.02434 0.318504,0 0.07507,0.02502 0.137265,0.08114 0.212336,0.106167 0.03357,0.0112 0.07452,-0.01582 0.106169,0 0.02819,0.0141 0.304408,0.290316 0.318504,0.318506 0.03166,0.0633 -0.03165,0.14903 0,0.212333 0.02239,0.04476 0.08379,0.0614 0.106168,0.106171 0.0074,0.0145 0.0074,0.622507 0,0.637007 -0.02238,0.04476 -0.08378,0.0614 -0.106168,0.106168 -0.03165,0.06331 0.03166,0.14903 0,0.212337 -0.02238,0.04476 -0.08378,0.0614 -0.106169,0.106167 -0.01582,0.03165 -0.01582,0.07452 0,0.106168 0.0102,0.02033 0.40435,0.414512 0.424672,0.424673 0.03165,0.01583 0.07452,-0.01582 0.106169,0 0.04476,0.02238 0.0614,0.08378 0.106167,0.106168 0.06331,0.03165 0.14903,-0.03165 0.212336,0 0.04475,0.02238 0.0614,0.08378 0.106169,0.106168 0.03166,0.01583 0.07452,-0.01582 0.106168,0 0.04476,0.02238 0.0614,0.08378 0.106168,0.106168 0.0633,0.03166 0.149029,-0.03165 0.212337,0 0.04476,0.02238 0.0614,0.08379 0.106167,0.106169 0.03165,0.01583 0.07452,-0.01582 0.106167,0 0.04477,0.02238 0.0614,0.08378 0.106169,0.106167 0.03165,0.01582 0.07452,-0.01583 0.106169,0 0.104469,0.05224 0.3202,0.372436 0.424672,0.424673 0.03165,0.01582 0.07452,-0.01583 0.106169,0 0.04476,0.02238 0.07077,0.07077 0.106166,0.106167 0.03539,0.03539 0.07077,0.07077 0.106169,0.106168"
       id="path4465"
       inkscape:connector-curvature="0" />
    <path
       style="fill:none;stroke:#ff0000;stroke-width:0.52550501;stroke-linecap:butt;stroke-linejoin:miter;stroke-miterlimit:4;stroke-dasharray:none;stroke-opacity:1"
       d="m 17.26559,8.8637908 c 0.132022,-0.1558174 -0.452242,-0.4798123 -0.53084,-0.6370077 -0.01583,-0.031655 0.01582,-0.074516 0,-0.1061688 -0.02458,-0.049166 -0.36223,-0.3622295 -0.424672,-0.4246722 -0.05589,-0.055892 -0.261801,-0.2901523 -0.318504,-0.3185031 -0.03165,-0.015829 -0.07452,0.015829 -0.106168,0 -0.08953,-0.044763 -0.122807,-0.1675721 -0.212337,-0.2123368 -0.01184,-0.0059 -0.518989,-0.0059 -0.53084,0 -0.04476,0.022386 -0.0614,0.083786 -0.106167,0.1061678 -0.03165,0.015829 -0.07452,-0.015829 -0.106168,0 -0.04476,0.022386 -0.07077,0.070775 -0.106168,0.106169 -0.03539,0.035387 -0.07077,0.070775 -0.106169,0.1061676 -0.03539,0.035387 -0.07077,0.070775 -0.106167,0.1061679 -0.03539,0.035387 -0.0614,0.083786 -0.106169,0.1061676 -0.0633,0.031655 -0.14903,-0.031655 -0.212336,0 -0.04476,0.022386 -0.0614,0.083786 -0.106167,0.106169 -0.02792,0.013957 -0.369156,0 -0.424673,0 -0.05551,0 -0.396756,0.013957 -0.424671,0 -0.04476,-0.022386 -0.06141,-0.083786 -0.106169,-0.106169 -0.03166,-0.015829 -0.08114,0.025024 -0.10617,0 -0.02502,-0.025024 0.02503,-0.081137 0,-0.1061676 -0.02502,-0.025024 -0.08113,0.025024 -0.106166,0 -0.02503,-0.025024 0.02502,-0.081148 0,-0.1061679 -0.02503,-0.025024 -0.07452,0.015829 -0.106167,0 C 12.867939,7.4612209 12.841931,7.4128318 12.806534,7.377439 12.771146,7.3420517 12.735759,7.3066633 12.700365,7.27127 12.558808,7.1297126 12.41725,6.9881552 12.275692,6.8465978 12.063358,6.6342623 11.851019,6.4219257 11.638685,6.2095901 11.582791,6.1536977 11.376883,5.9194366 11.320181,5.8910857 c -0.03165,-0.015829 -0.07452,0.015829 -0.106169,0 -0.04476,-0.022386 -0.0614,-0.083785 -0.106168,-0.1061677 -0.0058,-0.00275 -0.312951,-0.00275 -0.318504,0 -0.04476,0.022386 -0.0614,0.083785 -0.106168,0.1061677 -0.0633,0.031655 -0.14903,-0.031655 -0.212337,0 -0.08953,0.044762 -0.122806,0.1675719 -0.212335,0.2123366 -0.03165,0.015829 -0.07077,0 -0.106169,0 -0.07526,0 -0.6095587,-0.013727 -0.6370071,0 -0.2623843,0.1311913 0.036648,0.1061678 -0.2123365,0.1061678"
       id="path4467"
       inkscape:connector-curvature="0" />
    <path
       style="fill:none;stroke:#ff0000;stroke-width:0.52550501;stroke-linecap:butt;stroke-linejoin:miter;stroke-miterlimit:4;stroke-dasharray:none;stroke-opacity:1"
       d="M 15.779239,15.870882 C 15.637681,15.729326 15.51089,15.57127 15.354566,15.44621 c -0.02763,-0.02212 -0.07452,0.01583 -0.106168,0 -0.352115,-0.352115 0.100091,0.05006 -0.212336,-0.106167 -0.04476,-0.02238 -0.06452,-0.07841 -0.106168,-0.106167 -0.06585,-0.04391 -0.146494,-0.06227 -0.212337,-0.106171 -0.08329,-0.05552 -0.129049,-0.156812 -0.212336,-0.212335 -0.06585,-0.0439 -0.146493,-0.06228 -0.212336,-0.106167 -0.06578,-0.04384 -0.146562,-0.168487 -0.212334,-0.212337 -0.06584,-0.0439 -0.146495,-0.06227 -0.212338,-0.106169 -0.04164,-0.02777 -0.0614,-0.08378 -0.106168,-0.106167 -0.03165,-0.01583 -0.08115,0.02502 -0.106167,0 -0.02502,-0.02503 0.01583,-0.07452 0,-0.106169 -0.220922,-0.441847 0.0075,0.113498 -0.212336,-0.106168 -0.02503,-0.02502 0.02502,-0.08114 0,-0.106167 -0.02503,-0.02502 -0.07452,0.01583 -0.106168,0 -0.08953,-0.04476 -0.122808,-0.167571 -0.212339,-0.212337 -0.03165,-0.01583 -0.07259,0.0112 -0.106166,0 -0.07507,-0.02503 -0.137264,-0.08114 -0.212335,-0.106168 -0.03357,-0.0112 -0.07259,0.0112 -0.10617,0 -0.07508,-0.02502 -0.135565,-0.08698 -0.212335,-0.106168 -0.137331,-0.03434 -0.290381,0.04476 -0.424672,0 -0.04749,-0.01583 -0.05868,-0.09036 -0.106168,-0.106167 -0.0071,-0.0022 -0.523868,-0.0022 -0.530842,0 -0.04747,0.01583 -0.05868,0.09034 -0.106166,0.106167 -0.09818,0.03272 -0.567061,-0.03498 -0.637009,0 -0.04477,0.02238 -0.05869,0.09035 -0.106168,0.106168 -0.06715,0.02238 -0.14519,-0.02238 -0.212335,0 -0.04749,0.01583 -0.0614,0.08379 -0.106169,0.106168 -0.03165,0.01583 -0.07077,0 -0.106169,0 -0.03539,0.03539 -0.0614,0.08379 -0.106168,0.10617 -0.03165,0.01583 -0.074518,-0.01583 -0.1061659,0 -0.044763,0.02238 -0.061408,0.08379 -0.1061712,0.106167 -0.031653,0.01583 -0.074519,-0.01583 -0.106167,0 -0.044772,0.02238 -0.0614,0.08378 -0.1061679,0.106167 -0.063298,0.03165 -0.1490296,-0.03165 -0.2123364,0 -0.044766,0.02238 -0.061396,0.08378 -0.1061672,0.106168 -0.027451,0.01372 -0.5617562,0 -0.6370084,0 -0.073845,0 -0.4924463,0.0192 -0.5308403,0 -0.1274016,-0.06371 -0.1911024,-0.254802 -0.3185042,-0.318502 -0.031652,-0.01583 -0.081144,0.02502 -0.1061678,0 -0.025025,-0.02503 0.015828,-0.07452 0,-0.10617 C 7.6821158,13.796982 7.4478562,13.591078 7.3919625,13.535186 7.1796264,13.32285 6.9672903,13.110513 6.7549542,12.898177 6.6925117,12.835741 6.379446,12.498087 6.330282,12.473505 c -0.1121078,-0.05604 -0.1002294,0.05605 -0.2123363,0 -0.044764,-0.02238 -0.061403,-0.08378 -0.1061678,-0.106168 -0.00553,-0.0026 -0.31295,-0.0026 -0.3185042,0 -0.044765,0.02238 -0.061403,0.08378 -0.106168,0.106168 -0.084934,0.04247 -0.2335699,-0.04248 -0.3185042,0 -0.044765,0.02238 -0.061403,0.08378 -0.106168,0.106168 -0.063306,0.03166 -0.1490297,-0.03165 -0.212336,0 -0.3521152,0.352115 0.100096,-0.05006 -0.2123362,0.106168 -0.2347434,0.117372 -0.032947,0.0659 -0.1061681,0.212336 -0.022382,0.04476 -0.083785,0.0614 -0.1061681,0.106167 -0.015828,0.03165 0.015827,0.07452 0,0.106169 -0.022382,0.04476 -0.070779,0.07077 -0.106168,0.106168 -0.03539,0.03539 -0.070778,0.07077 -0.106168,0.106169"
       id="path4469"
       inkscape:connector-curvature="0" />
    <path
       style="fill:none;stroke:#ff0000;stroke-width:0.52550501;stroke-linecap:butt;stroke-linejoin:miter;stroke-miterlimit:4;stroke-dasharray:none;stroke-opacity:1"
       d="m 16.840918,22.665636 c -0.141556,-0.07077 -0.277725,-0.153555 -0.424672,-0.212335 -0.06571,-0.02628 -0.141557,0 -0.212334,0 -0.212338,0 -0.424673,0 -0.63701,0 -0.283115,0 -0.56623,0 -0.849345,0 -0.106167,0 -0.217784,-0.03357 -0.318504,0 -0.04749,0.01583 -0.05869,0.09035 -0.106168,0.106168 -0.06715,0.02238 -0.141557,0 -0.212334,0 -0.03539,0 -0.07452,-0.01582 -0.10617,0 -0.352114,0.352116 0.100091,-0.05006 -0.212336,0.106167 -0.04476,0.02239 -0.0614,0.08379 -0.106167,0.10617 -0.03166,0.01582 -0.07452,-0.01583 -0.106169,0 -0.04393,0.02196 -0.288504,0.273504 -0.318504,0.318503 -0.04389,0.06585 -0.06227,0.146495 -0.10617,0.212337 -0.06443,0.09666 -0.271452,0.224402 -0.318501,0.318505 -0.01583,0.03165 0.01583,0.07452 0,0.106168 -0.0637,0.127399 -0.254805,0.1911 -0.318505,0.318504 -0.01583,0.03165 0.01583,0.07452 0,0.106167 -0.0102,0.02032 -0.40435,0.414511 -0.424671,0.424672 -0.03165,0.01582 -0.07452,-0.01583 -0.106169,0 -0.08953,0.04476 -0.122809,0.167572 -0.212336,0.212336 -0.03165,0.01582 -0.07077,0 -0.106168,0 -0.03539,0 -0.07452,0.01582 -0.106167,0 -0.04476,-0.02239 -0.0614,-0.08379 -0.106171,-0.106168 -0.03165,-0.01583 -0.07259,0.0112 -0.106166,0 -0.07508,-0.02503 -0.137265,-0.08115 -0.212337,-0.106168 -0.03357,-0.0112 -0.07452,0.01582 -0.106169,0 -0.485889,-0.242946 0.450517,0.04401 -0.318503,-0.212336 -0.06714,-0.02238 -0.145189,0.02238 -0.212337,0 -0.07506,-0.02502 -0.137263,-0.08113 -0.212335,-0.106168 -0.06715,-0.02238 -0.14903,0.03165 -0.212337,0 -0.04476,-0.02238 -0.061398,-0.08378 -0.1061659,-0.106168 -0.031653,-0.01582 -0.070771,0 -0.1061712,0 -0.03539,0 -0.074519,-0.01582 -0.106167,0 -0.044772,0.02238 -0.0614,0.08378 -0.1061679,0.106168 -0.063298,0.03165 -0.1490296,-0.03165 -0.2123364,0 -0.044766,0.02238 -0.070772,0.07077 -0.1061672,0.106168 -0.070772,0 -0.1451903,-0.02238 -0.2123358,0 -0.047484,0.01583 -0.0614,0.08378 -0.1061689,0.106169 -0.031655,0.01583 -0.072595,-0.0112 -0.1061678,0 -0.075072,0.02503 -0.1372637,0.08114 -0.2123359,0.106167 -0.1007192,0.03357 -0.2177842,-0.03357 -0.3185042,0 -0.047479,0.01582 -0.070778,0.07077 -0.1061679,0.106168"
       id="path4471"
       inkscape:connector-curvature="0" />
  </g>
</svg>
